<svg version="1.1" xmlns="http://www.w3.org/2000/svg" xmlns:xlink="http://www.w3.org/1999/xlink" width="360" height="247"><style xmlns="http://www.w3.org/1999/xhtml"></style><defs/><g transform="translate(0,0)"><g><rect fill="#FFFFFF" stroke="none" x="0" y="0" width="360" height="247"/></g><g transform="translate(0,0) matrix(1,0,0,1,10,37)"><g><g transform="translate(0,0) scale(3.3,1.9)"><g><path fill="none" stroke="none" d="M 10 0 L 90 0 Q 100 0 100 10 L 100 90 Q 100 100 90 100 L 10 100 Q 0 100 0 90 L 0 10 Q 0 0 10 0 Z"/><g transform="scale(0.30303030303030304,0.5263157894736842)"><path fill="#DDE6F1" stroke="none" d="M 10 0 L 320 0 Q 330 0 330 10 L 330 180 Q 330 190 320 190 L 10 190 Q 0 190 0 180 L 0 10 Q 0 0 10 0 Z"/><path fill="none" stroke="#0B599F" d="M 10 0 M 10 0 L 320 0 Q 330 0 330 10 L 330 180 Q 330 190 320 190 L 10 190 Q 0 190 0 180 L 0 10 Q 0 0 10 0 Z" stroke-miterlimit="10" stroke-width="2"/></g></g></g></g></g><g transform="matrix(1,0,0,1,125.5,80)"><g transform="translate(0,0)"><g transform="translate(-137,-83) translate(11.5,3) matrix(1,0,0,1,0,0)"><g><path fill="none" stroke="#0B599F" d="M 130 84.5 L 160 84.5 L 190 84.5 L 220 84.5" stroke-miterlimit="10" stroke-width="2"/></g></g></g></g><g transform="matrix(1,0,0,1,125.5,80)"><g transform="translate(0,0)"><g transform="translate(-125,-87) translate(-0.5,7) matrix(1,0,0,1,0,0)"><g><path fill="none" stroke="#0B599F" d="M 130 84.5 L 175 84.5 L 175 174.5 L 220 174.5" stroke-miterlimit="10" stroke-width="2"/></g></g></g></g><g transform="translate(0,0) matrix(1,0,0,1,220,47)"><g><g transform="translate(0,0) scale(1,0.75)"><g><path fill="none" stroke="none" d="M 10 0 L 90 0 Q 100 0 100 10 L 100 90 Q 100 100 90 100 L 10 100 Q 0 100 0 90 L 0 10 Q 0 0 10 0 Z"/><g transform="scale(1,1.3333333333333333)"><path fill="#FFFFFF" stroke="none" d="M 10 0 L 90 0 Q 100 0 100 10 L 100 65 Q 100 75 90 75 L 10 75 Q 0 75 0 65 L 0 10 Q 0 0 10 0 Z"/><path fill="none" stroke="#333333" d="M 10 0 M 10 0 L 90 0 Q 100 0 100 10 L 100 65 Q 100 75 90 75 L 10 75 Q 0 75 0 65 L 0 10 Q 0 0 10 0 Z" stroke-miterlimit="10" stroke-width="2"/></g></g></g></g></g><g transform="matrix(1,0,0,1,230,75)"><g transform="translate(91,20) matrix(1,0,0,1,0,0) translate(-91,-20)"><g/></g><g transform="translate(91,20) matrix(1,0,0,1,0,0) translate(-91,-20)"><g/></g><g transform="translate(91,20) matrix(1,0,0,1,0,0) translate(-91,-20)"><g/></g><g transform="translate(91,20) matrix(1,0,0,1,0,0) translate(-91,-20)"><g/></g><g transform="translate(91,20) matrix(1,0,0,1,0,0) translate(-91,-20)"><g/><text fill="rgb(0, 0, 0)" stroke="none" font-family="&quot;Arial&quot;" font-size="16px" font-style="normal" font-weight="normal" text-decoration="" line-height="18.5px" x="5" y="15">Executor</text><text fill="rgb(0, 0, 0)" stroke="none" font-family="&quot;Arial&quot;" font-size="16px" font-style="normal" font-weight="normal" text-decoration="" line-height="18.5px" x="72" y="15">I</text></g><g transform="translate(91,20) matrix(1,0,0,1,0,0) translate(-91,-20)"><g/></g></g><g transform="translate(0,0) matrix(1,0,0,1,220,137)"><g><g transform="translate(0,0) scale(1,0.75)"><g><path fill="none" stroke="none" d="M 10 0 L 90 0 Q 100 0 100 10 L 100 90 Q 100 100 90 100 L 10 100 Q 0 100 0 90 L 0 10 Q 0 0 10 0 Z"/><g transform="scale(1,1.3333333333333333)"><path fill="#FFFFFF" stroke="none" d="M 10 0 L 90 0 Q 100 0 100 10 L 100 65 Q 100 75 90 75 L 10 75 Q 0 75 0 65 L 0 10 Q 0 0 10 0 Z"/><path fill="none" stroke="#333333" d="M 10 0 M 10 0 L 90 0 Q 100 0 100 10 L 100 65 Q 100 75 90 75 L 10 75 Q 0 75 0 65 L 0 10 Q 0 0 10 0 Z" stroke-miterlimit="10" stroke-width="2"/></g></g></g></g></g><g transform="matrix(1,0,0,1,230,165)"><g transform="translate(87,20) matrix(1,0,0,1,0,0) translate(-87,-20)"><g/></g><g transform="translate(87,20) matrix(1,0,0,1,0,0) translate(-87,-20)"><g/></g><g transform="translate(87,20) matrix(1,0,0,1,0,0) translate(-87,-20)"><g/></g><g transform="translate(87,20) matrix(1,0,0,1,0,0) translate(-87,-20)"><g/></g><g transform="translate(87,20) matrix(1,0,0,1,0,0) translate(-87,-20)"><g/><text fill="rgb(0, 0, 0)" stroke="none" font-family="&quot;Arial&quot;" font-size="16px" font-style="normal" font-weight="normal" text-decoration="" line-height="18.5px" x="3" y="15">Executor</text><text fill="rgb(0, 0, 0)" stroke="none" font-family="&quot;Arial&quot;" font-size="16px" font-style="normal" font-weight="normal" text-decoration="" line-height="18.5px" x="70" y="15">II</text></g><g transform="translate(87,20) matrix(1,0,0,1,0,0) translate(-87,-20)"><g/></g></g><g transform="translate(0,0) matrix(1,0,0,1,30,47)"><g><g transform="translate(0,0) scale(1,0.75)"><g><path fill="none" stroke="none" d="M 10 0 L 90 0 Q 100 0 100 10 L 100 90 Q 100 100 90 100 L 10 100 Q 0 100 0 90 L 0 10 Q 0 0 10 0 Z"/><g transform="scale(1,1.3333333333333333)"><path fill="#FFFFFF" stroke="none" d="M 10 0 L 90 0 Q 100 0 100 10 L 100 65 Q 100 75 90 75 L 10 75 Q 0 75 0 65 L 0 10 Q 0 0 10 0 Z"/><path fill="none" stroke="#333333" d="M 10 0 M 10 0 L 90 0 Q 100 0 100 10 L 100 65 Q 100 75 90 75 L 10 75 Q 0 75 0 65 L 0 10 Q 0 0 10 0 Z" stroke-miterlimit="10" stroke-width="2"/></g></g></g></g></g><g transform="matrix(1,0,0,1,40,62)"><g transform="translate(105,157) matrix(1,0,0,1,0,0) translate(-105,-157)"><g/></g><g transform="translate(105,157) matrix(1,0,0,1,0,0) translate(-105,-157)"><g/></g><g transform="translate(105,157) matrix(1,0,0,1,0,0) translate(-105,-157)"><g/></g><g transform="translate(105,157) matrix(1,0,0,1,0,0) translate(-105,-157)"><g/></g><g transform="translate(105,157) matrix(1,0,0,1,0,0) translate(-105,-157)"><g/><text fill="rgb(0, 0, 0)" stroke="none" font-family="&quot;Arial&quot;" font-size="20px" font-style="normal" font-weight="normal" text-decoration="" line-height="22.75px" x="7" y="18">Jenkins</text></g><g transform="translate(105,157) matrix(1,0,0,1,0,0) translate(-105,-157)"><g/></g><g transform="translate(105,157) matrix(1,0,0,1,0,0) translate(-105,-157)"><g/></g><g transform="translate(105,157) matrix(1,0,0,1,0,0) translate(-105,-157)"><g/></g><g transform="translate(105,157) matrix(1,0,0,1,0,0) translate(-105,-157)"><g/><text fill="rgb(0, 0, 0)" stroke="none" font-family="&quot;Arial&quot;" font-size="20px" font-style="normal" font-weight="normal" text-decoration="" line-height="22.75px" x="2" y="41">(</text><text fill="rgb(0, 0, 0)" stroke="none" font-family="&quot;Arial&quot;" font-size="20px" font-style="normal" font-weight="normal" text-decoration="" line-height="22.75px" x="9" y="41">Master</text><text fill="rgb(0, 0, 0)" stroke="none" font-family="&quot;Arial&quot;" font-size="20px" font-style="normal" font-weight="normal" text-decoration="" line-height="22.75px" x="71" y="41">)</text></g><g transform="translate(105,157) matrix(1,0,0,1,0,0) translate(-105,-157)"><g/></g></g><g transform="matrix(1,0,0,1,102,10)"><g transform="translate(222,40) matrix(1,0,0,1,0,0) translate(-222,-40)"><g/></g><g transform="translate(222,40) matrix(1,0,0,1,0,0) translate(-222,-40)"><g/></g><g transform="translate(222,40) matrix(1,0,0,1,0,0) translate(-222,-40)"><g/></g><g transform="translate(222,40) matrix(1,0,0,1,0,0) translate(-222,-40)"><g/></g><g transform="translate(222,40) matrix(1,0,0,1,0,0) translate(-222,-40)"><g/><text fill="rgb(0, 0, 0)" stroke="none" font-family="&quot;Arial&quot;" font-size="24px" font-style="normal" font-weight="normal" text-decoration="" line-height="27px" x="38" y="22">Server</text></g><g transform="translate(222,40) matrix(1,0,0,1,0,0) translate(-222,-40)"><g/></g></g></g></svg>