<svg version="1.1" xmlns="http://www.w3.org/2000/svg" xmlns:xlink="http://www.w3.org/1999/xlink" width="623" height="270"><style xmlns="http://www.w3.org/1999/xhtml"></style><defs/><g transform="translate(0,0)"><g><rect fill="#FFFFFF" stroke="none" x="0" y="0" width="623" height="270"/></g><g transform="translate(0,0) matrix(1,0,0,1,150,10)"><g><g transform="translate(0,0) scale(2.7,1.2)"><g><path fill="none" stroke="none" d="M 10 0 L 90 0 Q 100 0 100 10 L 100 90 Q 100 100 90 100 L 10 100 Q 0 100 0 90 L 0 10 Q 0 0 10 0 Z"/><g transform="scale(0.37037037037037035,0.8333333333333334)"><path fill="#DDE6F1" stroke="none" d="M 10 0 L 260 0 Q 270 0 270 10 L 270 110 Q 270 120 260 120 L 10 120 Q 0 120 0 110 L 0 10 Q 0 0 10 0 Z"/><path fill="none" stroke="#0B599F" d="M 10 0 M 10 0 L 260 0 Q 270 0 270 10 L 270 110 Q 270 120 260 120 L 10 120 Q 0 120 0 110 L 0 10 Q 0 0 10 0 Z" stroke-miterlimit="10" stroke-width="2"/></g></g></g></g></g><g transform="translate(0.5,0.5) matrix(1,0,0,1,540,29)"><g><g transform="translate(0,0) scale(1.0128285181643562,1.0083620265617315) translate(-0.0001780171,0)"><g><g><path fill="#3966A0" stroke="rgb(0,0,0)" d="M 62.176 71.979 C 62.134 58.362 55.184 48.994 43.067 45.44 C 50.425 41.258 55.403 33.353 55.403 24.302 C 55.402 10.901 44.501 0 31.101 0 C 17.702 0 6.8 10.901 6.8 24.302 C 6.8 33.385 11.812 41.314 19.212 45.484 C 7.176 49.108 0.07 58.58 0.026 71.98 C -0.045 72.514 -0.04 73.694 1 75.043 C 4.212 79.208 14.339 81.32 31.101 81.32 C 47.863 81.32 57.992 79.208 61.203 75.043 C 62.242 73.693 62.248 72.514 62.176 71.979 Z" stroke-opacity="0" stroke-miterlimit="10"/></g><g><path fill="#FFFFFF" stroke="rgb(0,0,0)" d="M 31.101 3 C 19.356 3 9.8 12.556 9.8 24.302 C 9.8 33.578 15.771 41.467 24.063 44.383 C 26.27 45.159 28.632 45.604 31.101 45.604 C 33.587 45.604 35.966 45.153 38.187 44.366 C 46.455 41.436 52.402 33.561 52.402 24.303 C 52.402 12.556 42.847 3 31.101 3 Z" opacity="0.93" stroke-opacity="0" stroke-miterlimit="10"/></g><g><path fill="#FFFFFF" stroke="rgb(0,0,0)" d="M 3.026 72.104 L 3.005 72.453 C 3.026 72.606 3.126 72.966 3.583 73.455 C 4.948 74.918 10.362 78.321 31.101 78.321 C 52.57 78.321 57.642 74.748 58.828 73.212 C 59.102 72.855 59.226 72.487 59.226 72.487 L 59.176 72.104 C 59.176 58.426 51.738 49.723 38.495 47.45 C 36.161 48.197 33.678 48.604 31.099 48.604 C 28.541 48.604 26.076 48.204 23.759 47.467 C 10.643 49.795 3.026 58.637 3.026 72.104 Z" opacity="0.93" stroke-opacity="0" stroke-miterlimit="10"/></g></g></g></g></g><g transform="translate(0,0) matrix(1,0,0,1,150,170)"><g><g transform="translate(0,0) scale(1.4,0.8)"><g><g transform="scale(0.7142857142857143,1.25)"><path fill="#FFFFFF" stroke="none" d="M 140 0 L 140 70 Q 140 80 70 80 Q 0 80 0 70 L 0 0 Q 0 -10 70 -10 Q 140 -10 140 0"/><path fill="none" stroke="#0B599F" d="M 140 0 M 140 0 L 140 70 Q 140 80 70 80 Q 0 80 0 70 L 0 0 Q 0 -10 70 -10 Q 140 -10 140 0" stroke-miterlimit="10" stroke-width="2"/></g></g><g><g transform="scale(0.7142857142857143,1.25)"><path fill="rgb(0,0,0)" stroke="none" d="M 0 0 Q 0 10 70 10 Q 140 10 140 0 M 0 5 Q 0 15 70 15 Q 140 15 140 5 M 0 10 Q 0 20 70 20 Q 140 20 140 10" fill-opacity="0"/><path fill="none" stroke="#0B599F" d="M 0 0 M 0 0 Q 0 10 70 10 Q 140 10 140 0 M 0 5 Q 0 15 70 15 Q 140 15 140 5 M 0 10 Q 0 20 70 20 Q 140 20 140 10" stroke-miterlimit="10"/></g></g></g></g></g><g transform="matrix(1,0,0,1,161,194)"><g transform="translate(72,64) matrix(1,0,0,1,0,0) translate(-72,-64)"><g><rect fill="rgb(0,0,0)" stroke="none" x="0" y="0" width="119" height="33" fill-opacity="0"/></g></g><g transform="translate(72,64) matrix(1,0,0,1,0,0) translate(-72,-64)"><g><rect fill="rgb(0,0,0)" stroke="none" x="0" y="0" width="119" height="16" fill-opacity="0"/></g></g><g transform="translate(72,64) matrix(1,0,0,1,0,0) translate(-72,-64)"><g><rect fill="rgb(0,0,0)" stroke="none" x="1" y="0" width="117" height="14" fill-opacity="0"/></g></g><g transform="translate(72,64) matrix(1,0,0,1,0,0) translate(-72,-64)"><g><rect fill="rgb(0,0,0)" stroke="none" x="1" y="0" width="117" height="14" fill-opacity="0"/></g></g><g transform="translate(72,64) matrix(1,0,0,1,0,0) translate(-72,-64)"><g><rect fill="rgb(0,0,0)" stroke="none" x="1" y="0" width="117" height="15" fill-opacity="0"/></g><text fill="rgb(8, 35, 63)" stroke="none" font-family="Arial" font-size="14px" font-style="normal" font-weight="normal" text-decoration="" line-height="16.5px" x="1" y="14">$</text><text fill="rgb(8, 35, 63)" stroke="none" font-family="Arial" font-size="14px" font-style="normal" font-weight="normal" text-decoration="" line-height="16.5px" x="9" y="14">JENKINS_HOME</text></g><g transform="translate(72,64) matrix(1,0,0,1,0,0) translate(-72,-64)"><g><rect fill="rgb(0,0,0)" stroke="none" x="0" y="16" width="119" height="16" fill-opacity="0"/></g></g><g transform="translate(72,64) matrix(1,0,0,1,0,0) translate(-72,-64)"><g><rect fill="rgb(0,0,0)" stroke="none" x="23" y="16" width="74" height="14" fill-opacity="0"/></g></g><g transform="translate(72,64) matrix(1,0,0,1,0,0) translate(-72,-64)"><g><rect fill="rgb(0,0,0)" stroke="none" x="23" y="16" width="74" height="14" fill-opacity="0"/></g></g><g transform="translate(72,64) matrix(1,0,0,1,0,0) translate(-72,-64)"><g><rect fill="rgb(0,0,0)" stroke="none" x="23" y="16" width="74" height="15" fill-opacity="0"/></g><text fill="rgb(8, 35, 63)" stroke="none" font-family="Arial" font-size="14px" font-style="normal" font-weight="normal" text-decoration="" line-height="16.5px" x="23" y="30">XML</text><text fill="rgb(8, 35, 63)" stroke="none" font-family="Arial" font-size="14px" font-style="normal" font-weight="normal" text-decoration="" line-height="16.5px" x="55" y="30">Config</text></g><g transform="translate(72,64) matrix(1,0,0,1,0,0) translate(-72,-64)"><g/></g></g><g transform="translate(0,0) matrix(1,0,0,1,170,29)"><g><g transform="translate(0,0) scale(1,0.75)"><g><path fill="none" stroke="none" d="M 10 0 L 90 0 Q 100 0 100 10 L 100 90 Q 100 100 90 100 L 10 100 Q 0 100 0 90 L 0 10 Q 0 0 10 0 Z"/><g transform="scale(1,1.3333333333333333)"><path fill="#DDE6F1" stroke="none" d="M 10 0 L 90 0 Q 100 0 100 10 L 100 65 Q 100 75 90 75 L 10 75 Q 0 75 0 65 L 0 10 Q 0 0 10 0 Z"/><path fill="none" stroke="#0B599F" d="M 10 0 M 10 0 L 90 0 Q 100 0 100 10 L 100 65 Q 100 75 90 75 L 10 75 Q 0 75 0 65 L 0 10 Q 0 0 10 0 Z" stroke-miterlimit="10" stroke-width="2"/></g></g></g></g></g><g transform="matrix(1,0,0,1,180,57)"><g transform="translate(30,0) matrix(1,0,0,1,0,0) translate(-30,0)"><g><rect fill="rgb(0,0,0)" stroke="none" x="0" y="0" width="81" height="20" fill-opacity="0"/></g></g><g transform="translate(30,0) matrix(1,0,0,1,0,0) translate(-30,0)"><g><rect fill="rgb(0,0,0)" stroke="none" x="0" y="0" width="81" height="20" fill-opacity="0"/></g></g><g transform="translate(30,0) matrix(1,0,0,1,0,0) translate(-30,0)"><g><rect fill="rgb(0,0,0)" stroke="none" x="10" y="0" width="61" height="14" fill-opacity="0"/></g></g><g transform="translate(30,0) matrix(1,0,0,1,0,0) translate(-30,0)"><g><rect fill="rgb(0,0,0)" stroke="none" x="10" y="0" width="61" height="14" fill-opacity="0"/></g></g><g transform="translate(30,0) matrix(1,0,0,1,0,0) translate(-30,0)"><g><rect fill="rgb(0,0,0)" stroke="none" x="10" y="0" width="61" height="20" fill-opacity="0"/></g><text fill="rgb(8, 35, 63)" stroke="none" font-family="Arial" font-size="18px" font-style="normal" font-weight="normal" text-decoration="" line-height="20.5px" x="10" y="17">Jenkins</text></g><g transform="translate(30,0) matrix(1,0,0,1,0,0) translate(-30,0)"><g/></g></g><g transform="matrix(1,0,0,1,272,42)"><g transform="translate(188,144) matrix(1,0,0,1,0,0) translate(-188,-144)"><g><rect fill="rgb(0,0,0)" stroke="none" x="0" y="0" width="147" height="51" fill-opacity="0"/></g></g><g transform="translate(188,144) matrix(1,0,0,1,0,0) translate(-188,-144)"><g><rect fill="rgb(0,0,0)" stroke="none" x="0" y="0" width="147" height="18" fill-opacity="0"/></g></g><g transform="translate(188,144) matrix(1,0,0,1,0,0) translate(-188,-144)"><g><rect fill="rgb(0,0,0)" stroke="none" x="39" y="0" width="69" height="18" fill-opacity="0"/></g><text fill="rgb(0, 0, 0)" stroke="none" font-family="Arial" font-size="16px" font-style="normal" font-weight="normal" text-decoration="" line-height="18.5px" x="39" y="15">Container</text></g><g transform="translate(188,144) matrix(1,0,0,1,0,0) translate(-188,-144)"><g><rect fill="rgb(0,0,0)" stroke="none" x="0" y="18" width="147" height="18" fill-opacity="0"/></g></g><g transform="translate(188,144) matrix(1,0,0,1,0,0) translate(-188,-144)"><g><rect fill="rgb(0,0,0)" stroke="none" x="5" y="18" width="138" height="18" fill-opacity="0"/></g><text fill="rgb(0, 0, 0)" stroke="none" font-family="Arial" font-size="16px" font-style="normal" font-weight="normal" text-decoration="" line-height="18.5px" x="5" y="33">(</text><text fill="rgb(0, 0, 0)" stroke="none" font-family="Arial" font-size="16px" font-style="normal" font-weight="normal" text-decoration="" line-height="18.5px" x="10" y="33">Tomcat</text><text fill="rgb(0, 0, 0)" stroke="none" font-family="Arial" font-size="16px" font-style="normal" font-weight="normal" text-decoration="" line-height="18.5px" x="61" y="33">,</text><text fill="rgb(0, 0, 0)" stroke="none" font-family="Arial" font-size="16px" font-style="normal" font-weight="normal" text-decoration="" line-height="18.5px" x="69" y="33">Jetty</text><text fill="rgb(0, 0, 0)" stroke="none" font-family="Arial" font-size="16px" font-style="normal" font-weight="normal" text-decoration="" line-height="18.5px" x="104" y="33">,</text><text fill="rgb(0, 0, 0)" stroke="none" font-family="Arial" font-size="16px" font-style="normal" font-weight="normal" text-decoration="" line-height="18.5px" x="112" y="33">etc</text><text fill="rgb(0, 0, 0)" stroke="none" font-family="Arial" font-size="16px" font-style="normal" font-weight="normal" text-decoration="" line-height="18.5px" x="134" y="33">.)</text></g><g transform="translate(188,144) matrix(1,0,0,1,0,0) translate(-188,-144)"><g><rect fill="rgb(0,0,0)" stroke="none" x="0" y="36" width="147" height="14" fill-opacity="0"/></g></g><g transform="translate(188,144) matrix(1,0,0,1,0,0) translate(-188,-144)"><g><rect fill="rgb(0,0,0)" stroke="none" x="72" y="36" width="4" height="14" fill-opacity="0"/></g></g><g transform="translate(188,144) matrix(1,0,0,1,0,0) translate(-188,-144)"><g><rect fill="rgb(0,0,0)" stroke="none" x="72" y="36" width="4" height="14" fill-opacity="0"/></g></g></g><g transform="translate(0,0) matrix(1,0,0,1,440,48)"><g><g transform="translate(0,0) scale(0.8,0.5)"><g><g transform="scale(1.25,2)"><path fill="#FFFFFF" stroke="none" d="M 0 25 L 25 0 L 25 15 L 80 15 L 80 35 L 25 35 L 25 50 L 0 25 Z"/><path fill="none" stroke="#0B599F" d="M 0 25 M 0 25 L 25 0 L 25 15 L 80 15 L 80 35 L 25 35 L 25 50 L 0 25 Z" stroke-miterlimit="10" stroke-width="2"/></g></g></g></g></g><g transform="matrix(1,0,0,1,215.5,99.5)"><g transform="translate(0,0)"><g transform="translate(-219,-103) translate(3.5,3.5) matrix(1,0,0,1,0,0)"><g><path fill="none" stroke="#0B599F" d="M 220 104 L 220 170" stroke-miterlimit="10" stroke-width="2"/></g></g></g></g><g transform="translate(0,0) matrix(1,0,0,1,10,10)"><g><g transform="translate(0,0) scale(1,2.2)"><g><path fill="none" stroke="none" d="M 10 0 L 90 0 Q 100 0 100 10 L 100 90 Q 100 100 90 100 L 10 100 Q 0 100 0 90 L 0 10 Q 0 0 10 0 Z"/><g transform="scale(1,0.45454545454545453)"><path fill="#DDE6F1" stroke="none" d="M 10 0 L 90 0 Q 100 0 100 10 L 100 210.00000000000003 Q 100 220.00000000000003 90 220.00000000000003 L 10 220.00000000000003 Q 0 220.00000000000003 0 210.00000000000003 L 0 10 Q 0 0 10 0 Z"/><path fill="none" stroke="#0B599F" d="M 10 0 M 10 0 L 12 0 M 12 0 M 14 0 L 16 0 M 16 0 M 18 0 L 20 0 M 20 0 M 22 0 L 24 0 M 24 0 M 26 0 L 28 0 M 28 0 M 30 0 L 32 0 M 32 0 M 34 0 L 36 0 M 36 0 M 38 0 L 40 0 M 40 0 M 42 0 L 44 0 M 44 0 M 46 0 L 48 0 M 48 0 M 50 0 L 52 0 M 52 0 M 54 0 L 56 0 M 56 0 M 58 0 L 60 0 M 60 0 M 62 0 L 64 0 M 64 0 M 66 0 L 68 0 M 68 0 M 70 0 L 72 0 M 72 0 M 74 0 L 76 0 M 76 0 M 78 0 L 80 0 M 80 0 M 82 0 L 84 0 M 84 0 M 86 0 L 88 0 M 88 0 M 90 0 L 90 0 Q 91.05336727381396 0 91.9957762862737 0.11095826135422505 M 91.9957762862737 0.11095826135422505 M 93.95625668943995 0.49544010981167697 Q 94.9660843712156 0.7845679072770562 95.8071835192862 1.2424242384474615 M 95.8071835192862 1.2424242384474615 M 97.4172158623328 2.4185642705702604 Q 98.1282715960539 3.1066434296762955 98.64356948494238 3.990480433614975 M 98.64356948494238 3.990480433614975 M 99.43815512418641 5.82119143640853 Q 99.71956938865662 6.727015463314162 99.86003017707594 7.7737929662706975 M 99.86003017707594 7.7737929662706975 M 99.9986356428502 9.767752957617544 Q 100 9.88319430023388 100 10 L 100 11.767747598597209 M 100 11.767747598597209 M 100 13.767747598597209 L 100 15.767747598597209 M 100 15.767747598597209 M 100 17.767747598597207 L 100 19.767747598597207 M 100 19.767747598597207 M 100 21.767747598597207 L 100 23.767747598597207 M 100 23.767747598597207 M 100 25.767747598597207 L 100 27.767747598597207 M 100 27.767747598597207 M 100 29.767747598597207 L 100 31.767747598597207 M 100 31.767747598597207 M 100 33.76774759859721 L 100 35.76774759859721 M 100 35.76774759859721 M 100 37.76774759859721 L 100 39.76774759859721 M 100 39.76774759859721 M 100 41.76774759859721 L 100 43.76774759859721 M 100 43.76774759859721 M 100 45.76774759859721 L 100 47.76774759859721 M 100 47.76774759859721 M 100 49.76774759859721 L 100 51.76774759859721 M 100 51.76774759859721 M 100 53.76774759859721 L 100 55.76774759859721 M 100 55.76774759859721 M 100 57.76774759859721 L 100 59.76774759859721 M 100 59.76774759859721 M 100 61.76774759859721 L 100 63.76774759859721 M 100 63.76774759859721 M 100 65.76774759859721 L 100 67.76774759859721 M 100 67.76774759859721 M 100 69.76774759859721 L 100 71.76774759859721 M 100 71.76774759859721 M 100 73.76774759859721 L 100 75.76774759859721 M 100 75.76774759859721 M 100 77.76774759859721 L 100 79.76774759859721 M 100 79.76774759859721 M 100 81.76774759859721 L 100 83.76774759859721 M 100 83.76774759859721 M 100 85.76774759859721 L 100 87.76774759859721 M 100 87.76774759859721 M 100 89.76774759859721 L 100 91.76774759859721 M 100 91.76774759859721 M 100 93.76774759859721 L 100 95.76774759859721 M 100 95.76774759859721 M 100 97.76774759859721 L 100 99.76774759859721 M 100 99.76774759859721 M 100 101.76774759859721 L 100 103.76774759859721 M 100 103.76774759859721 M 100 105.76774759859721 L 100 107.76774759859721 M 100 107.76774759859721 M 100 109.76774759859721 L 100 111.76774759859721 M 100 111.76774759859721 M 100 113.76774759859721 L 100 115.76774759859721 M 100 115.76774759859721 M 100 117.76774759859721 L 100 119.76774759859721 M 100 119.76774759859721 M 100 121.76774759859721 L 100 123.76774759859721 M 100 123.76774759859721 M 100 125.76774759859721 L 100 127.76774759859721 M 100 127.76774759859721 M 100 129.76774759859723 L 100 131.76774759859723 M 100 131.76774759859723 M 100 133.76774759859723 L 100 135.76774759859723 M 100 135.76774759859723 M 100 137.76774759859723 L 100 139.76774759859723 M 100 139.76774759859723 M 100 141.76774759859723 L 100 143.76774759859723 M 100 143.76774759859723 M 100 145.76774759859723 L 100 147.76774759859723 M 100 147.76774759859723 M 100 149.76774759859723 L 100 151.76774759859723 M 100 151.76774759859723 M 100 153.76774759859723 L 100 155.76774759859723 M 100 155.76774759859723 M 100 157.76774759859723 L 100 159.76774759859723 M 100 159.76774759859723 M 100 161.76774759859723 L 100 163.76774759859723 M 100 163.76774759859723 M 100 165.76774759859723 L 100 167.76774759859723 M 100 167.76774759859723 M 100 169.76774759859723 L 100 171.76774759859723 M 100 171.76774759859723 M 100 173.76774759859723 L 100 175.76774759859723 M 100 175.76774759859723 M 100 177.76774759859723 L 100 179.76774759859723 M 100 179.76774759859723 M 100 181.76774759859723 L 100 183.76774759859723 M 100 183.76774759859723 M 100 185.76774759859723 L 100 187.76774759859723 M 100 187.76774759859723 M 100 189.76774759859723 L 100 191.76774759859723 M 100 191.76774759859723 M 100 193.76774759859723 L 100 195.76774759859723 M 100 195.76774759859723 M 100 197.76774759859723 L 100 199.76774759859723 M 100 199.76774759859723 M 100 201.76774759859723 L 100 203.76774759859723 M 100 203.76774759859723 M 100 205.76774759859723 L 100 207.76774759859723 M 100 207.76774759859723 M 100 209.76774759859723 L 100 210.00000000000003 Q 100 210.92526228990909 99.91438896948723 211.76491354930533 M 99.91438896948723 211.76491354930533 M 99.56606142726264 213.73229988773213 Q 99.2984099398709 214.74950758414036 98.86567214025962 215.6016289683291 M 98.86567214025962 215.6016289683291 M 97.74017788828463 217.24769514930583 Q 97.0728196720327 217.9841907424768 96.20838090395762 218.52360578382468 M 96.20838090395762 218.52360578382468 M 94.39979031896189 219.36670006150814 Q 93.5002102314983 219.6692119261412 92.45612763790515 219.82722128464468 M 92.45612763790515 219.82722128464468 M 90.4644607747965 219.99447790249357 Q 90.23499143615149 220.00000000000003 90 220.00000000000003 L 88.46450480280618 220.00000000000003 M 88.46450480280618 220.00000000000003 M 86.46450480280618 220.00000000000003 L 84.46450480280618 220.00000000000003 M 84.46450480280618 220.00000000000003 M 82.46450480280618 220.00000000000003 L 80.46450480280618 220.00000000000003 M 80.46450480280618 220.00000000000003 M 78.46450480280618 220.00000000000003 L 76.46450480280618 220.00000000000003 M 76.46450480280618 220.00000000000003 M 74.46450480280618 220.00000000000003 L 72.46450480280618 220.00000000000003 M 72.46450480280618 220.00000000000003 M 70.46450480280618 220.00000000000003 L 68.46450480280618 220.00000000000003 M 68.46450480280618 220.00000000000003 M 66.46450480280618 220.00000000000003 L 64.46450480280618 220.00000000000003 M 64.46450480280618 220.00000000000003 M 62.464504802806175 220.00000000000003 L 60.464504802806175 220.00000000000003 M 60.464504802806175 220.00000000000003 M 58.464504802806175 220.00000000000003 L 56.464504802806175 220.00000000000003 M 56.464504802806175 220.00000000000003 M 54.464504802806175 220.00000000000003 L 52.464504802806175 220.00000000000003 M 52.464504802806175 220.00000000000003 M 50.464504802806175 220.00000000000003 L 48.464504802806175 220.00000000000003 M 48.464504802806175 220.00000000000003 M 46.464504802806175 220.00000000000003 L 44.464504802806175 220.00000000000003 M 44.464504802806175 220.00000000000003 M 42.464504802806175 220.00000000000003 L 40.464504802806175 220.00000000000003 M 40.464504802806175 220.00000000000003 M 38.464504802806175 220.00000000000003 L 36.464504802806175 220.00000000000003 M 36.464504802806175 220.00000000000003 M 34.464504802806175 220.00000000000003 L 32.464504802806175 220.00000000000003 M 32.464504802806175 220.00000000000003 M 30.464504802806175 220.00000000000003 L 28.464504802806175 220.00000000000003 M 28.464504802806175 220.00000000000003 M 26.464504802806175 220.00000000000003 L 24.464504802806175 220.00000000000003 M 24.464504802806175 220.00000000000003 M 22.464504802806175 220.00000000000003 L 20.464504802806175 220.00000000000003 M 20.464504802806175 220.00000000000003 M 18.464504802806175 220.00000000000003 L 16.464504802806175 220.00000000000003 M 16.464504802806175 220.00000000000003 M 14.464504802806175 220.00000000000003 L 12.464504802806175 220.00000000000003 M 12.464504802806175 220.00000000000003 M 10.464504802806175 220.00000000000003 L 10 220.00000000000003 Q 9.201255445772446 220.00000000000003 8.466310177835709 219.9362007137092 M 8.466310177835709 219.9362007137092 M 6.492908854759693 219.62280875850183 Q 5.469199299841257 219.37606969985555 4.606893712893674 218.96792667323842 M 4.606893712893674 218.96792667323842 M 2.926927662028214 217.8932898256718 Q 2.165625437591041 217.2474073510905 1.6023400908690375 216.403507998794 M 1.6023400908690375 216.403507998794 M 0.7099488694638217 214.61902427538809 Q 0.3856809749063046 213.72629262521804 0.2095218695355042 212.68545218586127 M 0.2095218695355042 212.68545218586127 M 0.012573331880017078 210.6966045549726 Q 0 210.35458894342634 0 210.00000000000003 L 0 208.6967572042107 M 0 208.6967572042107 M 0 206.6967572042107 L 0 204.6967572042107 M 0 204.6967572042107 M 0 202.6967572042107 L 0 200.6967572042107 M 0 200.6967572042107 M 0 198.6967572042107 L 0 196.6967572042107 M 0 196.6967572042107 M 0 194.6967572042107 L 0 192.6967572042107 M 0 192.6967572042107 M 0 190.6967572042107 L 0 188.6967572042107 M 0 188.6967572042107 M 0 186.6967572042107 L 0 184.6967572042107 M 0 184.6967572042107 M 0 182.6967572042107 L 0 180.6967572042107 M 0 180.6967572042107 M 0 178.6967572042107 L 0 176.6967572042107 M 0 176.6967572042107 M 0 174.6967572042107 L 0 172.6967572042107 M 0 172.6967572042107 M 0 170.6967572042107 L 0 168.6967572042107 M 0 168.6967572042107 M 0 166.6967572042107 L 0 164.6967572042107 M 0 164.6967572042107 M 0 162.6967572042107 L 0 160.6967572042107 M 0 160.6967572042107 M 0 158.6967572042107 L 0 156.6967572042107 M 0 156.6967572042107 M 0 154.6967572042107 L 0 152.6967572042107 M 0 152.6967572042107 M 0 150.6967572042107 L 0 148.6967572042107 M 0 148.6967572042107 M 0 146.6967572042107 L 0 144.6967572042107 M 0 144.6967572042107 M 0 142.6967572042107 L 0 140.6967572042107 M 0 140.6967572042107 M 0 138.6967572042107 L 0 136.6967572042107 M 0 136.6967572042107 M 0 134.6967572042107 L 0 132.6967572042107 M 0 132.6967572042107 M 0 130.6967572042107 L 0 128.6967572042107 M 0 128.6967572042107 M 0 126.69675720421071 L 0 124.69675720421071 M 0 124.69675720421071 M 0 122.69675720421071 L 0 120.69675720421071 M 0 120.69675720421071 M 0 118.69675720421071 L 0 116.69675720421071 M 0 116.69675720421071 M 0 114.69675720421071 L 0 112.69675720421071 M 0 112.69675720421071 M 0 110.69675720421071 L 0 108.69675720421071 M 0 108.69675720421071 M 0 106.69675720421071 L 0 104.69675720421071 M 0 104.69675720421071 M 0 102.69675720421071 L 0 100.69675720421071 M 0 100.69675720421071 M 0 98.69675720421071 L 0 96.69675720421071 M 0 96.69675720421071 M 0 94.69675720421071 L 0 92.69675720421071 M 0 92.69675720421071 M 0 90.69675720421071 L 0 88.69675720421071 M 0 88.69675720421071 M 0 86.69675720421071 L 0 84.69675720421071 M 0 84.69675720421071 M 0 82.69675720421071 L 0 80.69675720421071 M 0 80.69675720421071 M 0 78.69675720421071 L 0 76.69675720421071 M 0 76.69675720421071 M 0 74.69675720421071 L 0 72.69675720421071 M 0 72.69675720421071 M 0 70.69675720421071 L 0 68.69675720421071 M 0 68.69675720421071 M 0 66.69675720421071 L 0 64.69675720421071 M 0 64.69675720421071 M 0 62.69675720421071 L 0 60.69675720421071 M 0 60.69675720421071 M 0 58.69675720421071 L 0 56.69675720421071 M 0 56.69675720421071 M 0 54.69675720421071 L 0 52.69675720421071 M 0 52.69675720421071 M 0 50.69675720421071 L 0 48.69675720421071 M 0 48.69675720421071 M 0 46.69675720421071 L 0 44.69675720421071 M 0 44.69675720421071 M 0 42.69675720421071 L 0 40.69675720421071 M 0 40.69675720421071 M 0 38.69675720421071 L 0 36.69675720421071 M 0 36.69675720421071 M 0 34.69675720421071 L 0 32.69675720421071 M 0 32.69675720421071 M 0 30.696757204210712 L 0 28.696757204210712 M 0 28.696757204210712 M 0 26.696757204210712 L 0 24.696757204210712 M 0 24.696757204210712 M 0 22.696757204210712 L 0 20.696757204210712 M 0 20.696757204210712 M 0 18.696757204210712 L 0 16.696757204210712 M 0 16.696757204210712 M 0 14.696757204210712 L 0 12.696757204210712 M 0 12.696757204210712 M 0 10.696757204210712 L 0 10 Q 0 9.326215992450454 0.0453984888829529 8.69783047378386 M 0.0453984888829529 8.69783047378386 M 0.32504847067131637 6.719228338322416 Q 0.5514590234425207 5.6898327529004975 0.9355744818860774 4.8181420731509315 M 0.9355744818860774 4.8181420731509315 M 1.9593547492171688 3.106434893673081 Q 2.5830808281410933 2.321075407379063 3.4053591200755746 1.7342681340956014 M 3.4053591200755746 1.7342681340956014 M 5.163679847539644 0.7919299922998246 Q 6.04891637998492 0.4452545566662434 7.085913622139788 0.25033983074225447 M 7.085913622139788 0.25033983074225447 M 9.071362221432551 0.02262239809247679 Q 9.524369911670037 0 10 0 Z" stroke-miterlimit="10" stroke-width="2"/></g></g></g></g></g><g transform="matrix(1,0,0,1,20,30)"><g transform="translate(192,1200) matrix(1,0,0,1,0,0) translate(-192,-1200)"><g><rect fill="rgb(0,0,0)" stroke="none" x="0" y="0" width="81" height="180" fill-opacity="0"/></g></g><g transform="translate(192,1200) matrix(1,0,0,1,0,0) translate(-192,-1200)"><g><rect fill="rgb(0,0,0)" stroke="none" x="0" y="0" width="81" height="60" fill-opacity="0"/></g></g><g transform="translate(192,1200) matrix(1,0,0,1,0,0) translate(-192,-1200)"><g><rect fill="rgb(0,0,0)" stroke="none" x="9" y="0" width="65" height="60" fill-opacity="0"/></g></g><g transform="translate(192,1200) matrix(1,0,0,1,0,0) translate(-192,-1200)"><g><rect fill="rgb(0,0,0)" stroke="none" x="9" y="0" width="65" height="60" fill-opacity="0"/></g><text fill="rgb(8, 35, 63)" stroke="none" font-family="Arial" font-size="18px" font-style="normal" font-weight="normal" text-decoration="" line-height="20.5px" x="9" y="17">Multiple</text><text fill="rgb(8, 35, 63)" stroke="none" font-family="Arial" font-size="18px" font-style="normal" font-weight="normal" text-decoration="" line-height="20.5px" x="10" y="37">Jenkins</text><text fill="rgb(8, 35, 63)" stroke="none" font-family="Arial" font-size="18px" font-style="normal" font-weight="normal" text-decoration="" line-height="20.5px" x="8" y="57">masters</text></g><g transform="translate(192,1200) matrix(1,0,0,1,0,0) translate(-192,-1200)"><g/></g><g transform="translate(192,1200) matrix(1,0,0,1,0,0) translate(-192,-1200)"><g><rect fill="rgb(0,0,0)" stroke="none" x="0" y="60" width="81" height="20" fill-opacity="0"/></g></g><g transform="translate(192,1200) matrix(1,0,0,1,0,0) translate(-192,-1200)"><g><rect fill="rgb(0,0,0)" stroke="none" x="38" y="60" width="5" height="20" fill-opacity="0"/></g></g><g transform="translate(192,1200) matrix(1,0,0,1,0,0) translate(-192,-1200)"><g><rect fill="rgb(0,0,0)" stroke="none" x="38" y="60" width="5" height="20" fill-opacity="0"/></g></g><g transform="translate(192,1200) matrix(1,0,0,1,0,0) translate(-192,-1200)"><g><rect fill="rgb(0,0,0)" stroke="none" x="0" y="80" width="81" height="40" fill-opacity="0"/></g></g><g transform="translate(192,1200) matrix(1,0,0,1,0,0) translate(-192,-1200)"><g><rect fill="rgb(0,0,0)" stroke="none" x="10" y="80" width="61" height="40" fill-opacity="0"/></g></g><g transform="translate(192,1200) matrix(1,0,0,1,0,0) translate(-192,-1200)"><g><rect fill="rgb(0,0,0)" stroke="none" x="10" y="80" width="61" height="40" fill-opacity="0"/></g><text fill="rgb(8, 35, 63)" stroke="none" font-family="Arial" font-size="18px" font-style="normal" font-weight="normal" text-decoration="" line-height="20.5px" x="10" y="97">Jenkins</text><text fill="rgb(8, 35, 63)" stroke="none" font-family="Arial" font-size="18px" font-style="normal" font-weight="normal" text-decoration="" line-height="20.5px" x="13" y="117">Agents</text></g><g transform="translate(192,1200) matrix(1,0,0,1,0,0) translate(-192,-1200)"><g><rect fill="rgb(0,0,0)" stroke="none" x="0" y="120" width="81" height="20" fill-opacity="0"/></g></g><g transform="translate(192,1200) matrix(1,0,0,1,0,0) translate(-192,-1200)"><g><rect fill="rgb(0,0,0)" stroke="none" x="38" y="120" width="5" height="20" fill-opacity="0"/></g></g><g transform="translate(192,1200) matrix(1,0,0,1,0,0) translate(-192,-1200)"><g><rect fill="rgb(0,0,0)" stroke="none" x="38" y="120" width="5" height="20" fill-opacity="0"/></g></g><g transform="translate(192,1200) matrix(1,0,0,1,0,0) translate(-192,-1200)"><g><rect fill="rgb(0,0,0)" stroke="none" x="0" y="140" width="81" height="20" fill-opacity="0"/></g></g><g transform="translate(192,1200) matrix(1,0,0,1,0,0) translate(-192,-1200)"><g><rect fill="rgb(0,0,0)" stroke="none" x="1" y="140" width="80" height="20" fill-opacity="0"/></g></g><g transform="translate(192,1200) matrix(1,0,0,1,0,0) translate(-192,-1200)"><g><rect fill="rgb(0,0,0)" stroke="none" x="1" y="140" width="80" height="20" fill-opacity="0"/></g><text fill="rgb(8, 35, 63)" stroke="none" font-family="Arial" font-size="18px" font-style="normal" font-weight="normal" text-decoration="" line-height="20.5px" x="1" y="157">Executors</text></g></g><g transform="matrix(1,0,0,1,105.5,61.340911865234375)"><g transform="translate(0,0)"><g transform="translate(-169,-67) translate(63.5,5.659088134765625) matrix(1,0,0,1,0,0)"><g><path fill="none" stroke="#0B599F" d="M 170.00361986721626 65.84091186523438 M 170.00361986721626 65.84091186523438 L 168.00361986721626 65.84091186523438 M 168.00361986721626 65.84091186523438 M 166.00361986721626 65.84091186523438 L 164.00361986721626 65.84091186523438 M 164.00361986721626 65.84091186523438 M 162.00361986721626 65.84091186523438 L 160.00361986721626 65.84091186523438 M 160.00361986721626 65.84091186523438 M 158.00361986721626 65.84091186523438 L 156.00361986721626 65.84091186523438 M 156.00361986721626 65.84091186523438 M 154.00361986721626 65.84091186523438 L 152.00361986721626 65.84091186523438 M 152.00361986721626 65.84091186523438 M 150.00361986721626 65.84091186523438 L 150.00241324481084 65.84091186523438 L 148.00361986721626 65.84091186523438 M 148.00361986721626 65.84091186523438 M 146.00361986721626 65.84091186523438 L 144.00361986721626 65.84091186523438 M 144.00361986721626 65.84091186523438 M 142.00361986721626 65.84091186523438 L 140.00361986721626 65.84091186523438 M 140.00361986721626 65.84091186523438 M 138.00361986721626 65.84091186523438 L 136.00361986721626 65.84091186523438 M 136.00361986721626 65.84091186523438 M 134.00361986721626 65.84091186523438 L 132.00361986721626 65.84091186523438 M 132.00361986721626 65.84091186523438 M 130.00361986721626 65.84091186523438 L 130.00120662240542 65.84091186523438 L 128.00361986721626 65.84091186523438 M 128.00361986721626 65.84091186523438 M 126.00361986721626 65.84091186523438 L 124.00361986721626 65.84091186523438 M 124.00361986721626 65.84091186523438 M 122.00361986721626 65.84091186523438 L 120.00361986721626 65.84091186523438 M 120.00361986721626 65.84091186523438 M 118.00361986721626 65.84091186523438 L 116.00361986721626 65.84091186523438 M 116.00361986721626 65.84091186523438 M 114.00361986721626 65.84091186523438 L 112.00361986721626 65.84091186523438 M 112.00361986721626 65.84091186523438 M 110.00361986721626 65.84091186523438 L 110 65.84091186523438" stroke-miterlimit="10" stroke-width="2"/></g></g></g></g></g></svg>