<svg version="1.1" xmlns="http://www.w3.org/2000/svg" xmlns:xlink="http://www.w3.org/1999/xlink" width="623" height="270"><style xmlns="http://www.w3.org/1999/xhtml"></style><defs/><g transform="translate(0,0)"><g><rect fill="#FFFFFF" stroke="none" x="0" y="0" width="623" height="270"/></g><g transform="translate(0,0) matrix(1,0,0,1,150,10)"><g><g transform="translate(0,0) scale(2.7,1.2)"><g><path fill="none" stroke="none" d="M 10 0 L 90 0 Q 100 0 100 10 L 100 90 Q 100 100 90 100 L 10 100 Q 0 100 0 90 L 0 10 Q 0 0 10 0 Z"/><g transform="scale(0.37037037037037035,0.8333333333333334)"><path fill="#DDE6F1" stroke="none" d="M 10 0 L 260 0 Q 270 0 270 10 L 270 110 Q 270 120 260 120 L 10 120 Q 0 120 0 110 L 0 10 Q 0 0 10 0 Z"/><path fill="none" stroke="#0B599F" d="M 10 0 M 10 0 L 260 0 Q 270 0 270 10 L 270 110 Q 270 120 260 120 L 10 120 Q 0 120 0 110 L 0 10 Q 0 0 10 0 Z" stroke-miterlimit="10" stroke-width="2"/></g></g></g></g></g><g transform="translate(0.5,0.5) matrix(1,0,0,1,540,29)"><g><g transform="translate(0,0) scale(1.0128285181643562,1.0083620265617315) translate(-0.0001780171,0)"><g><g><path fill="#3966A0" stroke="rgb(0,0,0)" d="M 62.176 71.979 C 62.134 58.362 55.184 48.994 43.067 45.44 C 50.425 41.258 55.403 33.353 55.403 24.302 C 55.402 10.901 44.501 0 31.101 0 C 17.702 0 6.8 10.901 6.8 24.302 C 6.8 33.385 11.812 41.314 19.212 45.484 C 7.176 49.108 0.07 58.58 0.026 71.98 C -0.045 72.514 -0.04 73.694 1 75.043 C 4.212 79.208 14.339 81.32 31.101 81.32 C 47.863 81.32 57.992 79.208 61.203 75.043 C 62.242 73.693 62.248 72.514 62.176 71.979 Z" stroke-opacity="0" stroke-miterlimit="10"/></g><g><path fill="#FFFFFF" stroke="rgb(0,0,0)" d="M 31.101 3 C 19.356 3 9.8 12.556 9.8 24.302 C 9.8 33.578 15.771 41.467 24.063 44.383 C 26.27 45.159 28.632 45.604 31.101 45.604 C 33.587 45.604 35.966 45.153 38.187 44.366 C 46.455 41.436 52.402 33.561 52.402 24.303 C 52.402 12.556 42.847 3 31.101 3 Z" opacity="0.93" stroke-opacity="0" stroke-miterlimit="10"/></g><g><path fill="#FFFFFF" stroke="rgb(0,0,0)" d="M 3.026 72.104 L 3.005 72.453 C 3.026 72.606 3.126 72.966 3.583 73.455 C 4.948 74.918 10.362 78.321 31.101 78.321 C 52.57 78.321 57.642 74.748 58.828 73.212 C 59.102 72.855 59.226 72.487 59.226 72.487 L 59.176 72.104 C 59.176 58.426 51.738 49.723 38.495 47.45 C 36.161 48.197 33.678 48.604 31.099 48.604 C 28.541 48.604 26.076 48.204 23.759 47.467 C 10.643 49.795 3.026 58.637 3.026 72.104 Z" opacity="0.93" stroke-opacity="0" stroke-miterlimit="10"/></g></g></g></g></g><g transform="translate(0,0) matrix(1,0,0,1,150,170)"><g><g transform="translate(0,0) scale(1.4,0.8)"><g><g transform="scale(0.7142857142857143,1.25)"><path fill="#FFFFFF" stroke="none" d="M 140 0 L 140 70 Q 140 80 70 80 Q 0 80 0 70 L 0 0 Q 0 -10 70 -10 Q 140 -10 140 0"/><path fill="none" stroke="#0B599F" d="M 140 0 M 140 0 L 140 70 Q 140 80 70 80 Q 0 80 0 70 L 0 0 Q 0 -10 70 -10 Q 140 -10 140 0" stroke-miterlimit="10" stroke-width="2"/></g></g><g><g transform="scale(0.7142857142857143,1.25)"><path fill="rgb(0,0,0)" stroke="none" d="M 0 0 Q 0 10 70 10 Q 140 10 140 0 M 0 5 Q 0 15 70 15 Q 140 15 140 5 M 0 10 Q 0 20 70 20 Q 140 20 140 10" fill-opacity="0"/><path fill="none" stroke="#0B599F" d="M 0 0 M 0 0 Q 0 10 70 10 Q 140 10 140 0 M 0 5 Q 0 15 70 15 Q 140 15 140 5 M 0 10 Q 0 20 70 20 Q 140 20 140 10" stroke-miterlimit="10"/></g></g></g></g></g><g transform="matrix(1,0,0,1,161,194)"><g transform="translate(172,102) matrix(1,0,0,1,0,0) translate(-172,-102)"><g/></g><g transform="translate(172,102) matrix(1,0,0,1,0,0) translate(-172,-102)"><g/></g><g transform="translate(172,102) matrix(1,0,0,1,0,0) translate(-172,-102)"><g/></g><g transform="translate(172,102) matrix(1,0,0,1,0,0) translate(-172,-102)"><g/></g><g transform="translate(172,102) matrix(1,0,0,1,0,0) translate(-172,-102)"><g/><text fill="rgb(8, 35, 63)" stroke="none" font-family="&quot;Arial&quot;" font-size="14px" font-style="normal" font-weight="normal" text-decoration="" line-height="16.5px" x="2" y="13">$</text><text fill="rgb(8, 35, 63)" stroke="none" font-family="&quot;Arial&quot;" font-size="14px" font-style="normal" font-weight="normal" text-decoration="" line-height="16.5px" x="10" y="13">JENKINS_HOME</text></g><g transform="translate(172,102) matrix(1,0,0,1,0,0) translate(-172,-102)"><g/></g><g transform="translate(172,102) matrix(1,0,0,1,0,0) translate(-172,-102)"><g/></g><g transform="translate(172,102) matrix(1,0,0,1,0,0) translate(-172,-102)"><g/></g><g transform="translate(172,102) matrix(1,0,0,1,0,0) translate(-172,-102)"><g/><text fill="rgb(8, 35, 63)" stroke="none" font-family="&quot;Arial&quot;" font-size="14px" font-style="normal" font-weight="normal" text-decoration="" line-height="16.5px" x="23" y="30">XML</text><text fill="rgb(8, 35, 63)" stroke="none" font-family="&quot;Arial&quot;" font-size="14px" font-style="normal" font-weight="normal" text-decoration="" line-height="16.5px" x="56" y="30">Config</text></g><g transform="translate(172,102) matrix(1,0,0,1,0,0) translate(-172,-102)"><g/></g></g><g transform="translate(0,0) matrix(1,0,0,1,170,29)"><g><g transform="translate(0,0) scale(1,0.75)"><g><path fill="none" stroke="none" d="M 10 0 L 90 0 Q 100 0 100 10 L 100 90 Q 100 100 90 100 L 10 100 Q 0 100 0 90 L 0 10 Q 0 0 10 0 Z"/><g transform="scale(1,1.3333333333333333)"><path fill="#DDE6F1" stroke="none" d="M 10 0 L 90 0 Q 100 0 100 10 L 100 65 Q 100 75 90 75 L 10 75 Q 0 75 0 65 L 0 10 Q 0 0 10 0 Z"/><path fill="none" stroke="#0B599F" d="M 10 0 M 10 0 L 90 0 Q 100 0 100 10 L 100 65 Q 100 75 90 75 L 10 75 Q 0 75 0 65 L 0 10 Q 0 0 10 0 Z" stroke-miterlimit="10" stroke-width="2"/></g></g></g></g></g><g transform="matrix(1,0,0,1,180,56)"><g transform="translate(101,22) matrix(1,0,0,1,0,0) translate(-101,-22)"><g/></g><g transform="translate(101,22) matrix(1,0,0,1,0,0) translate(-101,-22)"><g/></g><g transform="translate(101,22) matrix(1,0,0,1,0,0) translate(-101,-22)"><g/></g><g transform="translate(101,22) matrix(1,0,0,1,0,0) translate(-101,-22)"><g/></g><g transform="translate(101,22) matrix(1,0,0,1,0,0) translate(-101,-22)"><g/><text fill="rgb(8, 35, 63)" stroke="none" font-family="&quot;Arial&quot;" font-size="18px" font-style="normal" font-weight="normal" text-decoration="" line-height="20.5px" x="10" y="16">Jenkins</text></g><g transform="translate(101,22) matrix(1,0,0,1,0,0) translate(-101,-22)"><g/></g></g><g transform="matrix(1,0,0,1,272,41)"><g transform="translate(190,150) matrix(1,0,0,1,0,0) translate(-190,-150)"><g/></g><g transform="translate(190,150) matrix(1,0,0,1,0,0) translate(-190,-150)"><g/></g><g transform="translate(190,150) matrix(1,0,0,1,0,0) translate(-190,-150)"><g/><text fill="rgb(0, 0, 0)" stroke="none" font-family="&quot;Arial&quot;" font-size="16px" font-style="normal" font-weight="normal" text-decoration="" line-height="18.5px" x="39" y="15">Container</text></g><g transform="translate(190,150) matrix(1,0,0,1,0,0) translate(-190,-150)"><g/></g><g transform="translate(190,150) matrix(1,0,0,1,0,0) translate(-190,-150)"><g/><text fill="rgb(0, 0, 0)" stroke="none" font-family="&quot;Arial&quot;" font-size="16px" font-style="normal" font-weight="normal" text-decoration="" line-height="18.5px" x="7" y="33">(</text><text fill="rgb(0, 0, 0)" stroke="none" font-family="&quot;Arial&quot;" font-size="16px" font-style="normal" font-weight="normal" text-decoration="" line-height="18.5px" x="12" y="33">Tomcat</text><text fill="rgb(0, 0, 0)" stroke="none" font-family="&quot;Arial&quot;" font-size="16px" font-style="normal" font-weight="normal" text-decoration="" line-height="18.5px" x="63" y="33">,</text><text fill="rgb(0, 0, 0)" stroke="none" font-family="&quot;Arial&quot;" font-size="16px" font-style="normal" font-weight="normal" text-decoration="" line-height="18.5px" x="71" y="33">Jetty</text><text fill="rgb(0, 0, 0)" stroke="none" font-family="&quot;Arial&quot;" font-size="16px" font-style="normal" font-weight="normal" text-decoration="" line-height="18.5px" x="103" y="33">,</text><text fill="rgb(0, 0, 0)" stroke="none" font-family="&quot;Arial&quot;" font-size="16px" font-style="normal" font-weight="normal" text-decoration="" line-height="18.5px" x="111" y="33">etc</text><text fill="rgb(0, 0, 0)" stroke="none" font-family="&quot;Arial&quot;" font-size="16px" font-style="normal" font-weight="normal" text-decoration="" line-height="18.5px" x="132" y="33">.)</text></g><g transform="translate(190,150) matrix(1,0,0,1,0,0) translate(-190,-150)"><g/></g><g transform="translate(190,150) matrix(1,0,0,1,0,0) translate(-190,-150)"><g/></g><g transform="translate(190,150) matrix(1,0,0,1,0,0) translate(-190,-150)"><g/></g></g><g transform="translate(0,0) matrix(1,0,0,1,440,48)"><g><g transform="translate(0,0) scale(0.8,0.5)"><g><g transform="scale(1.25,2)"><path fill="#FFFFFF" stroke="none" d="M 0 25 L 25 0 L 25 15 L 80 15 L 80 35 L 25 35 L 25 50 L 0 25 Z"/><path fill="none" stroke="#0B599F" d="M 0 25 M 0 25 L 25 0 L 25 15 L 80 15 L 80 35 L 25 35 L 25 50 L 0 25 Z" stroke-miterlimit="10" stroke-width="2"/></g></g></g></g></g><g transform="matrix(1,0,0,1,215.5,99.5)"><g transform="translate(0,0)"><g transform="translate(-219,-103) translate(3.5,3.5) matrix(1,0,0,1,0,0)"><g><path fill="none" stroke="#0B599F" d="M 220 104 L 220 170" stroke-miterlimit="10" stroke-width="2"/></g></g></g></g><g transform="translate(0,0) matrix(1,0,0,1,10,10)"><g><g transform="translate(0,0) scale(1,1.76)"><g><path fill="none" stroke="none" d="M 10 0 L 90 0 Q 100 0 100 10 L 100 90 Q 100 100 90 100 L 10 100 Q 0 100 0 90 L 0 10 Q 0 0 10 0 Z"/><g transform="scale(1,0.5681818181818182)"><path fill="#DDE6F1" stroke="none" d="M 10 0 L 90 0 Q 100 0 100 10 L 100 166 Q 100 176 90 176 L 10 176 Q 0 176 0 166 L 0 10 Q 0 0 10 0 Z"/><path fill="none" stroke="#0B599F" d="M 10 0 M 10 0 L 12 0 M 12 0 M 14 0 L 16 0 M 16 0 M 18 0 L 20 0 M 20 0 M 22 0 L 24 0 M 24 0 M 26 0 L 28 0 M 28 0 M 30 0 L 32 0 M 32 0 M 34 0 L 36 0 M 36 0 M 38 0 L 40 0 M 40 0 M 42 0 L 44 0 M 44 0 M 46 0 L 48 0 M 48 0 M 50 0 L 52 0 M 52 0 M 54 0 L 56 0 M 56 0 M 58 0 L 60 0 M 60 0 M 62 0 L 64 0 M 64 0 M 66 0 L 68 0 M 68 0 M 70 0 L 72 0 M 72 0 M 74 0 L 76 0 M 76 0 M 78 0 L 80 0 M 80 0 M 82 0 L 84 0 M 84 0 M 86 0 L 88 0 M 88 0 M 90 0 L 90 0 Q 91.05336727381396 0 91.9957762862737 0.11095826135422505 M 91.9957762862737 0.11095826135422505 M 93.95625668943995 0.49544010981167697 Q 94.9660843712156 0.7845679072770562 95.8071835192862 1.2424242384474615 M 95.8071835192862 1.2424242384474615 M 97.4172158623328 2.4185642705702604 Q 98.1282715960539 3.1066434296762955 98.64356948494238 3.990480433614975 M 98.64356948494238 3.990480433614975 M 99.43815512418641 5.82119143640853 Q 99.71956938865662 6.727015463314162 99.86003017707594 7.7737929662706975 M 99.86003017707594 7.7737929662706975 M 99.9986356428502 9.767752957617544 Q 100 9.88319430023388 100 10 L 100 11.767747598597209 M 100 11.767747598597209 M 100 13.767747598597209 L 100 15.767747598597209 M 100 15.767747598597209 M 100 17.76774759859721 L 100 19.76774759859721 M 100 19.76774759859721 M 100 21.76774759859721 L 100 23.76774759859721 M 100 23.76774759859721 M 100 25.76774759859721 L 100 27.76774759859721 M 100 27.76774759859721 M 100 29.76774759859721 L 100 31.76774759859721 M 100 31.76774759859721 M 100 33.76774759859721 L 100 35.76774759859721 M 100 35.76774759859721 M 100 37.76774759859721 L 100 39.76774759859721 M 100 39.76774759859721 M 100 41.76774759859721 L 100 43.76774759859721 M 100 43.76774759859721 M 100 45.76774759859721 L 100 47.76774759859721 M 100 47.76774759859721 M 100 49.76774759859721 L 100 51.76774759859721 M 100 51.76774759859721 M 100 53.76774759859721 L 100 55.76774759859721 M 100 55.76774759859721 M 100 57.76774759859721 L 100 59.76774759859721 M 100 59.76774759859721 M 100 61.76774759859721 L 100 63.76774759859721 M 100 63.76774759859721 M 100 65.76774759859721 L 100 67.76774759859721 M 100 67.76774759859721 M 100 69.76774759859721 L 100 71.76774759859721 M 100 71.76774759859721 M 100 73.76774759859721 L 100 75.76774759859721 M 100 75.76774759859721 M 100 77.76774759859721 L 100 79.76774759859721 M 100 79.76774759859721 M 100 81.76774759859721 L 100 83.76774759859721 M 100 83.76774759859721 M 100 85.76774759859721 L 100 87.76774759859721 M 100 87.76774759859721 M 100 89.76774759859721 L 100 91.76774759859721 M 100 91.76774759859721 M 100 93.76774759859721 L 100 95.76774759859721 M 100 95.76774759859721 M 100 97.76774759859721 L 100 99.76774759859721 M 100 99.76774759859721 M 100 101.76774759859721 L 100 103.76774759859721 M 100 103.76774759859721 M 100 105.76774759859721 L 100 107.76774759859721 M 100 107.76774759859721 M 100 109.76774759859721 L 100 111.76774759859721 M 100 111.76774759859721 M 100 113.76774759859721 L 100 115.76774759859721 M 100 115.76774759859721 M 100 117.76774759859721 L 100 119.76774759859721 M 100 119.76774759859721 M 100 121.76774759859721 L 100 123.76774759859721 M 100 123.76774759859721 M 100 125.76774759859721 L 100 127.76774759859721 M 100 127.76774759859721 M 100 129.76774759859723 L 100 131.76774759859723 M 100 131.76774759859723 M 100 133.76774759859723 L 100 135.76774759859723 M 100 135.76774759859723 M 100 137.76774759859723 L 100 139.76774759859723 M 100 139.76774759859723 M 100 141.76774759859723 L 100 143.76774759859723 M 100 143.76774759859723 M 100 145.76774759859723 L 100 147.76774759859723 M 100 147.76774759859723 M 100 149.76774759859723 L 100 151.76774759859723 M 100 151.76774759859723 M 100 153.76774759859723 L 100 155.76774759859723 M 100 155.76774759859723 M 100 157.76774759859723 L 100 159.76774759859723 M 100 159.76774759859723 M 100 161.76774759859723 L 100 163.76774759859723 M 100 163.76774759859723 M 100 165.76774759859723 L 100 166 Q 100 166.92526228990906 99.91438896948722 167.76491354930533 M 99.91438896948722 167.76491354930533 M 99.56606142726262 169.73229988773213 Q 99.29840993987088 170.74950758414036 98.86567214025962 171.6016289683291 M 98.86567214025962 171.6016289683291 M 97.74017788828462 173.2476951493058 Q 97.07281967203268 173.98419074247678 96.2083809039576 174.52360578382465 M 96.2083809039576 174.52360578382465 M 94.39979031896189 175.36670006150808 Q 93.5002102314983 175.66921192614114 92.45612763790515 175.82722128464465 M 92.45612763790515 175.82722128464465 M 90.4644607747965 175.99447790249354 Q 90.23499143615149 176 90 176 L 88.46450480280618 176 M 88.46450480280618 176 M 86.46450480280618 176 L 84.46450480280618 176 M 84.46450480280618 176 M 82.46450480280618 176 L 80.46450480280618 176 M 80.46450480280618 176 M 78.46450480280618 176 L 76.46450480280618 176 M 76.46450480280618 176 M 74.46450480280618 176 L 72.46450480280618 176 M 72.46450480280618 176 M 70.46450480280618 176 L 68.46450480280618 176 M 68.46450480280618 176 M 66.46450480280618 176 L 64.46450480280618 176 M 64.46450480280618 176 M 62.464504802806175 176 L 60.464504802806175 176 M 60.464504802806175 176 M 58.464504802806175 176 L 56.464504802806175 176 M 56.464504802806175 176 M 54.464504802806175 176 L 52.464504802806175 176 M 52.464504802806175 176 M 50.464504802806175 176 L 48.464504802806175 176 M 48.464504802806175 176 M 46.464504802806175 176 L 44.464504802806175 176 M 44.464504802806175 176 M 42.464504802806175 176 L 40.464504802806175 176 M 40.464504802806175 176 M 38.464504802806175 176 L 36.464504802806175 176 M 36.464504802806175 176 M 34.464504802806175 176 L 32.464504802806175 176 M 32.464504802806175 176 M 30.464504802806175 176 L 28.464504802806175 176 M 28.464504802806175 176 M 26.464504802806175 176 L 24.464504802806175 176 M 24.464504802806175 176 M 22.464504802806175 176 L 20.464504802806175 176 M 20.464504802806175 176 M 18.464504802806175 176 L 16.464504802806175 176 M 16.464504802806175 176 M 14.464504802806175 176 L 12.464504802806175 176 M 12.464504802806175 176 M 10.464504802806175 176 L 10 176 Q 9.201255445772446 176 8.466310177835709 175.93620071370918 M 8.466310177835709 175.93620071370918 M 6.492908854759693 175.62280875850183 Q 5.469199299841257 175.37606969985555 4.606893712893674 174.9679266732384 M 4.606893712893674 174.9679266732384 M 2.92692766202821 173.89328982567173 Q 2.1656254375910335 173.24740735109043 1.6023400908690286 172.40350799879394 M 1.6023400908690286 172.40350799879394 M 0.7099488694638117 170.61902427538803 Q 0.385680974906298 169.72629262521795 0.20952186953549998 168.68545218586115 M 0.20952186953549998 168.68545218586115 M 0.012573331880014124 166.69660455497248 Q 0 166.35458894342625 0 166 L 0 164.6967572042106 M 0 164.6967572042106 M 0 162.6967572042106 L 0 160.6967572042106 M 0 160.6967572042106 M 0 158.6967572042106 L 0 156.6967572042106 M 0 156.6967572042106 M 0 154.6967572042106 L 0 152.6967572042106 M 0 152.6967572042106 M 0 150.6967572042106 L 0 148.6967572042106 M 0 148.6967572042106 M 0 146.6967572042106 L 0 144.6967572042106 M 0 144.6967572042106 M 0 142.6967572042106 L 0 140.6967572042106 M 0 140.6967572042106 M 0 138.6967572042106 L 0 136.6967572042106 M 0 136.6967572042106 M 0 134.6967572042106 L 0 132.6967572042106 M 0 132.6967572042106 M 0 130.6967572042106 L 0 128.6967572042106 M 0 128.6967572042106 M 0 126.6967572042106 L 0 124.6967572042106 M 0 124.6967572042106 M 0 122.6967572042106 L 0 120.6967572042106 M 0 120.6967572042106 M 0 118.6967572042106 L 0 116.6967572042106 M 0 116.6967572042106 M 0 114.6967572042106 L 0 112.6967572042106 M 0 112.6967572042106 M 0 110.6967572042106 L 0 108.6967572042106 M 0 108.6967572042106 M 0 106.6967572042106 L 0 104.6967572042106 M 0 104.6967572042106 M 0 102.6967572042106 L 0 100.6967572042106 M 0 100.6967572042106 M 0 98.6967572042106 L 0 96.6967572042106 M 0 96.6967572042106 M 0 94.6967572042106 L 0 92.6967572042106 M 0 92.6967572042106 M 0 90.6967572042106 L 0 88.6967572042106 M 0 88.6967572042106 M 0 86.6967572042106 L 0 84.6967572042106 M 0 84.6967572042106 M 0 82.6967572042106 L 0 80.6967572042106 M 0 80.6967572042106 M 0 78.6967572042106 L 0 76.6967572042106 M 0 76.6967572042106 M 0 74.6967572042106 L 0 72.6967572042106 M 0 72.6967572042106 M 0 70.6967572042106 L 0 68.6967572042106 M 0 68.6967572042106 M 0 66.6967572042106 L 0 64.6967572042106 M 0 64.6967572042106 M 0 62.6967572042106 L 0 60.6967572042106 M 0 60.6967572042106 M 0 58.6967572042106 L 0 56.6967572042106 M 0 56.6967572042106 M 0 54.6967572042106 L 0 52.6967572042106 M 0 52.6967572042106 M 0 50.6967572042106 L 0 48.6967572042106 M 0 48.6967572042106 M 0 46.6967572042106 L 0 44.6967572042106 M 0 44.6967572042106 M 0 42.6967572042106 L 0 40.6967572042106 M 0 40.6967572042106 M 0 38.6967572042106 L 0 36.6967572042106 M 0 36.6967572042106 M 0 34.6967572042106 L 0 32.6967572042106 M 0 32.6967572042106 M 0 30.6967572042106 L 0 28.6967572042106 M 0 28.6967572042106 M 0 26.6967572042106 L 0 24.6967572042106 M 0 24.6967572042106 M 0 22.6967572042106 L 0 20.6967572042106 M 0 20.6967572042106 M 0 18.6967572042106 L 0 16.6967572042106 M 0 16.6967572042106 M 0 14.696757204210599 L 0 12.696757204210599 M 0 12.696757204210599 M 0 10.696757204210599 L 0 10 Q 0 9.32621599245039 0.04539848888296112 8.69783047378374 M 0.04539848888296112 8.69783047378374 M 0.32504847067134107 6.7192283383223 Q 0.5514590234425554 5.689832752900385 0.9355744818861239 4.818142073150824 M 0.9355744818861239 4.818142073150824 M 1.959354749217241 3.1064348936729895 Q 2.583080828141177 2.3210754073789834 3.405359120075669 1.734268134095534 M 3.405359120075669 1.734268134095534 M 5.163679847539752 0.7919299922997823 Q 6.048916379985032 0.4452545566662124 7.085913622139903 0.2503398307422329 M 7.085913622139903 0.2503398307422329 M 9.071362221432668 0.022622398092470967 Q 9.5243699116701 0 10 0 Z" stroke-miterlimit="10" stroke-width="2"/></g></g></g></g></g><g transform="matrix(1,0,0,1,20,16)"><g transform="translate(262,1274) matrix(1,0,0,1,0,0) translate(-262,-1274)"><g/></g><g transform="translate(262,1274) matrix(1,0,0,1,0,0) translate(-262,-1274)"><g/></g><g transform="translate(262,1274) matrix(1,0,0,1,0,0) translate(-262,-1274)"><g/></g><g transform="translate(262,1274) matrix(1,0,0,1,0,0) translate(-262,-1274)"><g/><text fill="rgb(8, 35, 63)" stroke="none" font-family="&quot;Arial&quot;" font-size="18px" font-style="normal" font-weight="normal" text-decoration="" line-height="20.5px" x="10" y="16">Weitere</text><text fill="rgb(8, 35, 63)" stroke="none" font-family="&quot;Arial&quot;" font-size="18px" font-style="normal" font-weight="normal" text-decoration="" line-height="20.5px" x="10" y="37">Jenkins</text><text fill="rgb(8, 35, 63)" stroke="none" font-family="&quot;Arial&quot;" font-size="18px" font-style="normal" font-weight="normal" text-decoration="" line-height="20.5px" x="13" y="57">Master</text></g><g transform="translate(262,1274) matrix(1,0,0,1,0,0) translate(-262,-1274)"><g/></g><g transform="translate(262,1274) matrix(1,0,0,1,0,0) translate(-262,-1274)"><g/></g><g transform="translate(262,1274) matrix(1,0,0,1,0,0) translate(-262,-1274)"><g/></g><g transform="translate(262,1274) matrix(1,0,0,1,0,0) translate(-262,-1274)"><g/></g><g transform="translate(262,1274) matrix(1,0,0,1,0,0) translate(-262,-1274)"><g/></g><g transform="translate(262,1274) matrix(1,0,0,1,0,0) translate(-262,-1274)"><g/></g><g transform="translate(262,1274) matrix(1,0,0,1,0,0) translate(-262,-1274)"><g/><text fill="rgb(8, 35, 63)" stroke="none" font-family="&quot;Arial&quot;" font-size="18px" font-style="normal" font-weight="normal" text-decoration="" line-height="20.5px" x="10" y="98">Jenkins</text><text fill="rgb(8, 35, 63)" stroke="none" font-family="&quot;Arial&quot;" font-size="18px" font-style="normal" font-weight="normal" text-decoration="" line-height="20.5px" x="13" y="119">Agents</text></g><g transform="translate(262,1274) matrix(1,0,0,1,0,0) translate(-262,-1274)"><g/></g><g transform="translate(262,1274) matrix(1,0,0,1,0,0) translate(-262,-1274)"><g/></g><g transform="translate(262,1274) matrix(1,0,0,1,0,0) translate(-262,-1274)"><g/></g><g transform="translate(262,1274) matrix(1,0,0,1,0,0) translate(-262,-1274)"><g/></g><g transform="translate(262,1274) matrix(1,0,0,1,0,0) translate(-262,-1274)"><g/></g><g transform="translate(262,1274) matrix(1,0,0,1,0,0) translate(-262,-1274)"><g/><text fill="rgb(8, 35, 63)" stroke="none" font-family="&quot;Arial&quot;" font-size="18px" font-style="normal" font-weight="normal" text-decoration="" line-height="20.5px" x="1" y="160">Executors</text></g></g><g transform="matrix(1,0,0,1,105.5,57.04920651116762)"><g transform="translate(0,0)"><g transform="translate(-169,-67) translate(63.5,9.950793488832382) matrix(1,0,0,1,0,0)"><g><path fill="none" stroke="#0B599F" d="M 170.20390648595043 61.54920651116762 M 170.20390648595043 61.54920651116762 L 168.20390648595043 61.54920651116762 M 168.20390648595043 61.54920651116762 M 166.20390648595043 61.54920651116762 L 164.20390648595043 61.54920651116762 M 164.20390648595043 61.54920651116762 M 162.20390648595043 61.54920651116762 L 160.20390648595043 61.54920651116762 M 160.20390648595043 61.54920651116762 M 158.20390648595043 61.54920651116762 L 156.20390648595043 61.54920651116762 M 156.20390648595043 61.54920651116762 M 154.20390648595043 61.54920651116762 L 152.20390648595043 61.54920651116762 M 152.20390648595043 61.54920651116762 M 150.20390648595043 61.54920651116762 L 150.13593765730027 61.54920651116762 L 148.20390648595043 61.54920651116762 M 148.20390648595043 61.54920651116762 M 146.20390648595043 61.54920651116762 L 144.20390648595043 61.54920651116762 M 144.20390648595043 61.54920651116762 M 142.20390648595043 61.54920651116762 L 140.20390648595043 61.54920651116762 M 140.20390648595043 61.54920651116762 M 138.20390648595043 61.54920651116762 L 136.20390648595043 61.54920651116762 M 136.20390648595043 61.54920651116762 M 134.20390648595043 61.54920651116762 L 132.20390648595043 61.54920651116762 M 132.20390648595043 61.54920651116762 M 130.20390648595043 61.54920651116762 L 130.06796882865015 61.54920651116762 L 128.20390648595043 61.54920651116762 M 128.20390648595043 61.54920651116762 M 126.20390648595043 61.54920651116762 L 124.20390648595043 61.54920651116762 M 124.20390648595043 61.54920651116762 M 122.20390648595043 61.54920651116762 L 120.20390648595043 61.54920651116762 M 120.20390648595043 61.54920651116762 M 118.20390648595043 61.54920651116762 L 116.20390648595043 61.54920651116762 M 116.20390648595043 61.54920651116762 M 114.20390648595043 61.54920651116762 L 112.20390648595043 61.54920651116762 M 112.20390648595043 61.54920651116762 M 110.20390648595043 61.54920651116762 L 110 61.54920651116762" stroke-miterlimit="10" stroke-width="2"/></g></g></g></g></g></svg>