<svg version="1.1" xmlns="http://www.w3.org/2000/svg" xmlns:xlink="http://www.w3.org/1999/xlink" width="873.0417542635449" height="297.2264549043971"><style xmlns="http://www.w3.org/1999/xhtml"></style><defs/><g transform="translate(0,0)"><g><rect fill="#FFFFFF" stroke="none" x="0" y="0" width="873.0417542635449" height="297.2264549043971"/></g><g transform="translate(0,0) matrix(1,0,0,1,454.04175426354493,159.2264549043971)"><g><g transform="translate(0,0) scale(3.99,1.18)"><g><g transform="scale(0.2506265664160401,0.8474576271186441)"><path fill="#FFFFFF" stroke="none" d="M 0 35.4 L 340 35.4 L 340 0 L 399 59 L 340 118 L 340 82.6 L 0 82.6 L 0 35.4 Z"/><path fill="none" stroke="#d9d9d9" d="M 0 35.4 M 0 35.4 L 2 35.4 M 2 35.4 M 4 35.4 L 6 35.4 M 6 35.4 M 8 35.4 L 10 35.4 M 10 35.4 M 12 35.4 L 14 35.4 M 14 35.4 M 16 35.4 L 18 35.4 M 18 35.4 M 20 35.4 L 22 35.4 M 22 35.4 M 24 35.4 L 26 35.4 M 26 35.4 M 28 35.4 L 30 35.4 M 30 35.4 M 32 35.4 L 34 35.4 M 34 35.4 M 36 35.4 L 38 35.4 M 38 35.4 M 40 35.4 L 42 35.4 M 42 35.4 M 44 35.4 L 46 35.4 M 46 35.4 M 48 35.4 L 50 35.4 M 50 35.4 M 52 35.4 L 54 35.4 M 54 35.4 M 56 35.4 L 58 35.4 M 58 35.4 M 60 35.4 L 62 35.4 M 62 35.4 M 64 35.4 L 66 35.4 M 66 35.4 M 68 35.4 L 70 35.4 M 70 35.4 M 72 35.4 L 74 35.4 M 74 35.4 M 76 35.4 L 78 35.4 M 78 35.4 M 80 35.4 L 82 35.4 M 82 35.4 M 84 35.4 L 86 35.4 M 86 35.4 M 88 35.4 L 90 35.4 M 90 35.4 M 92 35.4 L 94 35.4 M 94 35.4 M 96 35.4 L 98 35.4 M 98 35.4 M 100 35.4 L 102 35.4 M 102 35.4 M 104 35.4 L 106 35.4 M 106 35.4 M 108 35.4 L 110 35.4 M 110 35.4 M 112 35.4 L 114 35.4 M 114 35.4 M 116 35.4 L 118 35.4 M 118 35.4 M 120 35.4 L 122 35.4 M 122 35.4 M 124 35.4 L 126 35.4 M 126 35.4 M 128 35.4 L 130 35.4 M 130 35.4 M 132 35.4 L 134 35.4 M 134 35.4 M 136 35.4 L 138 35.4 M 138 35.4 M 140 35.4 L 142 35.4 M 142 35.4 M 144 35.4 L 146 35.4 M 146 35.4 M 148 35.4 L 150 35.4 M 150 35.4 M 152 35.4 L 154 35.4 M 154 35.4 M 156 35.4 L 158 35.4 M 158 35.4 M 160 35.4 L 162 35.4 M 162 35.4 M 164 35.4 L 166 35.4 M 166 35.4 M 168 35.4 L 170 35.4 M 170 35.4 M 172 35.4 L 174 35.4 M 174 35.4 M 176 35.4 L 178 35.4 M 178 35.4 M 180 35.4 L 182 35.4 M 182 35.4 M 184 35.4 L 186 35.4 M 186 35.4 M 188 35.4 L 190 35.4 M 190 35.4 M 192 35.4 L 194 35.4 M 194 35.4 M 196 35.4 L 198 35.4 M 198 35.4 M 200 35.4 L 202 35.4 M 202 35.4 M 204 35.4 L 206 35.4 M 206 35.4 M 208 35.4 L 210 35.4 M 210 35.4 M 212 35.4 L 214 35.4 M 214 35.4 M 216 35.4 L 218 35.4 M 218 35.4 M 220 35.4 L 222 35.4 M 222 35.4 M 224 35.4 L 226 35.4 M 226 35.4 M 228 35.4 L 230 35.4 M 230 35.4 M 232 35.4 L 234 35.4 M 234 35.4 M 236 35.4 L 238 35.4 M 238 35.4 M 240 35.4 L 242 35.4 M 242 35.4 M 244 35.4 L 246 35.4 M 246 35.4 M 248 35.4 L 250 35.4 M 250 35.4 M 252 35.4 L 254 35.4 M 254 35.4 M 256 35.4 L 258 35.4 M 258 35.4 M 260 35.4 L 262 35.4 M 262 35.4 M 264 35.4 L 266 35.4 M 266 35.4 M 268 35.4 L 270 35.4 M 270 35.4 M 272 35.4 L 274 35.4 M 274 35.4 M 276 35.4 L 278 35.4 M 278 35.4 M 280 35.4 L 282 35.4 M 282 35.4 M 284 35.4 L 286 35.4 M 286 35.4 M 288 35.4 L 290 35.4 M 290 35.4 M 292 35.4 L 294 35.4 M 294 35.4 M 296 35.4 L 298 35.4 M 298 35.4 M 300 35.4 L 302 35.4 M 302 35.4 M 304 35.4 L 306 35.4 M 306 35.4 M 308 35.4 L 310 35.4 M 310 35.4 M 312 35.4 L 314 35.4 M 314 35.4 M 316 35.4 L 318 35.4 M 318 35.4 M 320 35.4 L 322 35.4 M 322 35.4 M 324 35.4 L 326 35.4 M 326 35.4 M 328 35.4 L 330 35.4 M 330 35.4 M 332 35.4 L 334 35.4 M 334 35.4 M 336 35.4 L 338 35.4 M 338 35.4 M 340 35.4 L 340 35.4 L 340 33.4 M 340 33.4 M 340 31.4 L 340 29.4 M 340 29.4 M 340 27.4 L 340 25.4 M 340 25.4 M 340 23.4 L 340 21.4 M 340 21.4 M 340 19.4 L 340 17.4 M 340 17.4 M 340 15.399999999999999 L 340 13.399999999999999 M 340 13.399999999999999 M 340 11.399999999999999 L 340 9.399999999999999 M 340 9.399999999999999 M 340 7.399999999999999 L 340 5.399999999999999 M 340 5.399999999999999 M 340 3.3999999999999986 L 340 1.3999999999999986 M 340 1.3999999999999986 M 340.4242640687119 0.4242640687119295 L 341.838477631085 1.8384776310850244 M 341.838477631085 1.8384776310850244 M 343.25269119345813 3.2526911934581193 L 344.66690475583124 4.666904755831215 M 344.66690475583124 4.666904755831215 M 346.08111831820435 6.081118318204311 L 347.49533188057745 7.495331880577407 M 347.49533188057745 7.495331880577407 M 348.90954544295056 8.909545442950503 L 350.32375900532367 10.323759005323598 M 350.32375900532367 10.323759005323598 M 351.7379725676968 11.737972567696694 L 353.1521861300699 13.15218613006979 M 353.1521861300699 13.15218613006979 M 354.566399692443 14.566399692442886 L 355.9806132548161 15.980613254815982 M 355.9806132548161 15.980613254815982 M 357.3948268171892 17.394826817189077 L 358.8090403795623 18.809040379562173 M 358.8090403795623 18.809040379562173 M 360.2232539419354 20.22325394193527 L 361.6374675043085 21.63746750430837 M 361.6374675043085 21.63746750430837 M 363.0516810666816 23.051681066681468 L 364.46589462905473 24.465894629054567 M 364.46589462905473 24.465894629054567 M 365.88010819142784 25.880108191427666 L 367.29432175380094 27.294321753800766 M 367.29432175380094 27.294321753800766 M 368.70853531617405 28.708535316173865 L 370.12274887854716 30.122748878546965 M 370.12274887854716 30.122748878546965 M 371.53696244092026 31.536962440920064 L 372.95117600329337 32.95117600329316 M 372.95117600329337 32.95117600329316 M 374.3653895656665 34.36538956566626 L 375.7796031280396 35.77960312803936 M 375.7796031280396 35.77960312803936 M 377.1938166904127 37.19381669041246 L 378.6080302527858 38.60803025278556 M 378.6080302527858 38.60803025278556 M 380.0222438151589 40.02224381515867 L 381.436457377532 41.436457377531774 M 381.436457377532 41.436457377531774 M 382.8506709399051 42.85067093990488 L 384.2648845022782 44.26488450227799 M 384.2648845022782 44.26488450227799 M 385.6790980646513 45.67909806465109 L 387.09331162702443 47.0933116270242 M 387.09331162702443 47.0933116270242 M 388.50752518939754 48.507525189397306 L 389.92173875177065 49.92173875177042 M 389.92173875177065 49.92173875177042 M 391.3359523141437 51.33595231414353 L 392.7501658765168 52.75016587651665 M 392.7501658765168 52.75016587651665 M 394.16437943888985 54.16437943888976 L 395.57859300126296 55.57859300126287 M 395.57859300126296 55.57859300126287 M 396.992806563636 56.99280656363598 L 398.4070201260091 58.40702012600909 M 398.4070201260091 58.40702012600909 M 398.1787663116178 59.82123368838219 L 396.7645527492447 61.235447250755286 M 396.7645527492447 61.235447250755286 M 395.35033918687157 62.64966081312838 L 393.93612562449846 64.06387437550147 M 393.93612562449846 64.06387437550147 M 392.52191206212535 65.47808793787456 L 391.10769849975225 66.89230150024765 M 391.10769849975225 66.89230150024765 M 389.69348493737914 68.30651506262075 L 388.27927137500603 69.72072862499384 M 388.27927137500603 69.72072862499384 M 386.8650578126329 71.13494218736693 L 385.4508442502598 72.54915574974002 M 385.4508442502598 72.54915574974002 M 384.0366306878867 73.96336931211312 L 382.6224171255136 75.37758287448621 M 382.6224171255136 75.37758287448621 M 381.2082035631405 76.7917964368593 L 379.7939900007674 78.20600999923239 M 379.7939900007674 78.20600999923239 M 378.3797764383943 79.62022356160548 L 376.9655628760212 81.03443712397859 M 376.9655628760212 81.03443712397859 M 375.5513493136481 82.4486506863517 L 374.13713575127497 83.8628642487248 M 374.13713575127497 83.8628642487248 M 372.72292218890186 85.27707781109791 L 371.30870862652876 86.69129137347102 M 371.30870862652876 86.69129137347102 M 369.89449506415565 88.10550493584412 L 368.48028150178254 89.51971849821723 M 368.48028150178254 89.51971849821723 M 367.06606793940944 90.93393206059034 L 365.65185437703633 92.34814562296344 M 365.65185437703633 92.34814562296344 M 364.2376408146632 93.76235918533655 L 362.8234272522901 95.17657274770966 M 362.8234272522901 95.17657274770966 M 361.409213689917 96.59078631008276 L 359.9950001275439 98.00499987245587 M 359.9950001275439 98.00499987245587 M 358.5807865651708 99.41921343482898 L 357.1665730027977 100.83342699720208 M 357.1665730027977 100.83342699720208 M 355.7523594404246 102.24764055957519 L 354.3381458780515 103.6618541219483 M 354.3381458780515 103.6618541219483 M 352.92393231567837 105.0760676843214 L 351.50971875330526 106.49028124669451 M 351.50971875330526 106.49028124669451 M 350.09550519093216 107.90449480906761 L 348.68129162855905 109.31870837144072 M 348.68129162855905 109.31870837144072 M 347.267078066186 110.73292193381383 L 345.8528645038129 112.14713549618693 M 345.8528645038129 112.14713549618693 M 344.43865094143985 113.56134905856005 L 343.02443737906674 114.97556262093316 M 343.02443737906674 114.97556262093316 M 341.6102238166937 116.38977618330628 L 340.1960102543206 117.80398974567939 M 340.1960102543206 117.80398974567939 M 340 116.2772003600244 L 340 114.2772003600244 M 340 114.2772003600244 M 340 112.2772003600244 L 340 110.2772003600244 M 340 110.2772003600244 M 340 108.2772003600244 L 340 106.2772003600244 M 340 106.2772003600244 M 340 104.2772003600244 L 340 102.2772003600244 M 340 102.2772003600244 M 340 100.2772003600244 L 340 98.2772003600244 M 340 98.2772003600244 M 340 96.2772003600244 L 340 94.2772003600244 M 340 94.2772003600244 M 340 92.2772003600244 L 340 90.2772003600244 M 340 90.2772003600244 M 340 88.2772003600244 L 340 86.2772003600244 M 340 86.2772003600244 M 340 84.2772003600244 L 340 82.6 L 339.6772003600244 82.6 M 339.6772003600244 82.6 M 337.6772003600244 82.6 L 335.6772003600244 82.6 M 335.6772003600244 82.6 M 333.6772003600244 82.6 L 331.6772003600244 82.6 M 331.6772003600244 82.6 M 329.6772003600244 82.6 L 327.6772003600244 82.6 M 327.6772003600244 82.6 M 325.6772003600244 82.6 L 323.6772003600244 82.6 M 323.6772003600244 82.6 M 321.6772003600244 82.6 L 319.6772003600244 82.6 M 319.6772003600244 82.6 M 317.6772003600244 82.6 L 315.6772003600244 82.6 M 315.6772003600244 82.6 M 313.6772003600244 82.6 L 311.6772003600244 82.6 M 311.6772003600244 82.6 M 309.6772003600244 82.6 L 307.6772003600244 82.6 M 307.6772003600244 82.6 M 305.6772003600244 82.6 L 303.6772003600244 82.6 M 303.6772003600244 82.6 M 301.6772003600244 82.6 L 299.6772003600244 82.6 M 299.6772003600244 82.6 M 297.6772003600244 82.6 L 295.6772003600244 82.6 M 295.6772003600244 82.6 M 293.6772003600244 82.6 L 291.6772003600244 82.6 M 291.6772003600244 82.6 M 289.6772003600244 82.6 L 287.6772003600244 82.6 M 287.6772003600244 82.6 M 285.6772003600244 82.6 L 283.6772003600244 82.6 M 283.6772003600244 82.6 M 281.6772003600244 82.6 L 279.6772003600244 82.6 M 279.6772003600244 82.6 M 277.6772003600244 82.6 L 275.6772003600244 82.6 M 275.6772003600244 82.6 M 273.6772003600244 82.6 L 271.6772003600244 82.6 M 271.6772003600244 82.6 M 269.6772003600244 82.6 L 267.6772003600244 82.6 M 267.6772003600244 82.6 M 265.6772003600244 82.6 L 263.6772003600244 82.6 M 263.6772003600244 82.6 M 261.6772003600244 82.6 L 259.6772003600244 82.6 M 259.6772003600244 82.6 M 257.6772003600244 82.6 L 255.67720036002441 82.6 M 255.67720036002441 82.6 M 253.67720036002441 82.6 L 251.67720036002441 82.6 M 251.67720036002441 82.6 M 249.67720036002441 82.6 L 247.67720036002441 82.6 M 247.67720036002441 82.6 M 245.67720036002441 82.6 L 243.67720036002441 82.6 M 243.67720036002441 82.6 M 241.67720036002441 82.6 L 239.67720036002441 82.6 M 239.67720036002441 82.6 M 237.67720036002441 82.6 L 235.67720036002441 82.6 M 235.67720036002441 82.6 M 233.67720036002441 82.6 L 231.67720036002441 82.6 M 231.67720036002441 82.6 M 229.67720036002441 82.6 L 227.67720036002441 82.6 M 227.67720036002441 82.6 M 225.67720036002441 82.6 L 223.67720036002441 82.6 M 223.67720036002441 82.6 M 221.67720036002441 82.6 L 219.67720036002441 82.6 M 219.67720036002441 82.6 M 217.67720036002441 82.6 L 215.67720036002441 82.6 M 215.67720036002441 82.6 M 213.67720036002441 82.6 L 211.67720036002441 82.6 M 211.67720036002441 82.6 M 209.67720036002441 82.6 L 207.67720036002441 82.6 M 207.67720036002441 82.6 M 205.67720036002441 82.6 L 203.67720036002441 82.6 M 203.67720036002441 82.6 M 201.67720036002441 82.6 L 199.67720036002441 82.6 M 199.67720036002441 82.6 M 197.67720036002441 82.6 L 195.67720036002441 82.6 M 195.67720036002441 82.6 M 193.67720036002441 82.6 L 191.67720036002441 82.6 M 191.67720036002441 82.6 M 189.67720036002441 82.6 L 187.67720036002441 82.6 M 187.67720036002441 82.6 M 185.67720036002441 82.6 L 183.67720036002441 82.6 M 183.67720036002441 82.6 M 181.67720036002441 82.6 L 179.67720036002441 82.6 M 179.67720036002441 82.6 M 177.67720036002441 82.6 L 175.67720036002441 82.6 M 175.67720036002441 82.6 M 173.67720036002441 82.6 L 171.67720036002441 82.6 M 171.67720036002441 82.6 M 169.67720036002441 82.6 L 167.67720036002441 82.6 M 167.67720036002441 82.6 M 165.67720036002441 82.6 L 163.67720036002441 82.6 M 163.67720036002441 82.6 M 161.67720036002441 82.6 L 159.67720036002441 82.6 M 159.67720036002441 82.6 M 157.67720036002441 82.6 L 155.67720036002441 82.6 M 155.67720036002441 82.6 M 153.67720036002441 82.6 L 151.67720036002441 82.6 M 151.67720036002441 82.6 M 149.67720036002441 82.6 L 147.67720036002441 82.6 M 147.67720036002441 82.6 M 145.67720036002441 82.6 L 143.67720036002441 82.6 M 143.67720036002441 82.6 M 141.67720036002441 82.6 L 139.67720036002441 82.6 M 139.67720036002441 82.6 M 137.67720036002441 82.6 L 135.67720036002441 82.6 M 135.67720036002441 82.6 M 133.67720036002441 82.6 L 131.67720036002441 82.6 M 131.67720036002441 82.6 M 129.67720036002441 82.6 L 127.67720036002441 82.6 M 127.67720036002441 82.6 M 125.67720036002441 82.6 L 123.67720036002441 82.6 M 123.67720036002441 82.6 M 121.67720036002441 82.6 L 119.67720036002441 82.6 M 119.67720036002441 82.6 M 117.67720036002441 82.6 L 115.67720036002441 82.6 M 115.67720036002441 82.6 M 113.67720036002441 82.6 L 111.67720036002441 82.6 M 111.67720036002441 82.6 M 109.67720036002441 82.6 L 107.67720036002441 82.6 M 107.67720036002441 82.6 M 105.67720036002441 82.6 L 103.67720036002441 82.6 M 103.67720036002441 82.6 M 101.67720036002441 82.6 L 99.67720036002441 82.6 M 99.67720036002441 82.6 M 97.67720036002441 82.6 L 95.67720036002441 82.6 M 95.67720036002441 82.6 M 93.67720036002441 82.6 L 91.67720036002441 82.6 M 91.67720036002441 82.6 M 89.67720036002441 82.6 L 87.67720036002441 82.6 M 87.67720036002441 82.6 M 85.67720036002441 82.6 L 83.67720036002441 82.6 M 83.67720036002441 82.6 M 81.67720036002441 82.6 L 79.67720036002441 82.6 M 79.67720036002441 82.6 M 77.67720036002441 82.6 L 75.67720036002441 82.6 M 75.67720036002441 82.6 M 73.67720036002441 82.6 L 71.67720036002441 82.6 M 71.67720036002441 82.6 M 69.67720036002441 82.6 L 67.67720036002441 82.6 M 67.67720036002441 82.6 M 65.67720036002441 82.6 L 63.677200360024415 82.6 M 63.677200360024415 82.6 M 61.677200360024415 82.6 L 59.677200360024415 82.6 M 59.677200360024415 82.6 M 57.677200360024415 82.6 L 55.677200360024415 82.6 M 55.677200360024415 82.6 M 53.677200360024415 82.6 L 51.677200360024415 82.6 M 51.677200360024415 82.6 M 49.677200360024415 82.6 L 47.677200360024415 82.6 M 47.677200360024415 82.6 M 45.677200360024415 82.6 L 43.677200360024415 82.6 M 43.677200360024415 82.6 M 41.677200360024415 82.6 L 39.677200360024415 82.6 M 39.677200360024415 82.6 M 37.677200360024415 82.6 L 35.677200360024415 82.6 M 35.677200360024415 82.6 M 33.677200360024415 82.6 L 31.677200360024415 82.6 M 31.677200360024415 82.6 M 29.677200360024415 82.6 L 27.677200360024415 82.6 M 27.677200360024415 82.6 M 25.677200360024415 82.6 L 23.677200360024415 82.6 M 23.677200360024415 82.6 M 21.677200360024415 82.6 L 19.677200360024415 82.6 M 19.677200360024415 82.6 M 17.677200360024415 82.6 L 15.677200360024415 82.6 M 15.677200360024415 82.6 M 13.677200360024415 82.6 L 11.677200360024415 82.6 M 11.677200360024415 82.6 M 9.677200360024415 82.6 L 7.677200360024415 82.6 M 7.677200360024415 82.6 M 5.677200360024415 82.6 L 3.6772003600244147 82.6 M 3.6772003600244147 82.6 M 1.6772003600244147 82.6 L 0 82.6 L 0 82.27720036002441 M 0 82.27720036002441 M 0 80.27720036002441 L 0 78.27720036002441 M 0 78.27720036002441 M 0 76.27720036002441 L 0 74.27720036002441 M 0 74.27720036002441 M 0 72.27720036002441 L 0 70.27720036002441 M 0 70.27720036002441 M 0 68.27720036002441 L 0 66.27720036002441 M 0 66.27720036002441 M 0 64.27720036002441 L 0 62.27720036002441 M 0 62.27720036002441 M 0 60.27720036002441 L 0 58.27720036002441 M 0 58.27720036002441 M 0 56.27720036002441 L 0 54.27720036002441 M 0 54.27720036002441 M 0 52.27720036002441 L 0 50.27720036002441 M 0 50.27720036002441 M 0 48.27720036002441 L 0 46.27720036002441 M 0 46.27720036002441 M 0 44.27720036002441 L 0 42.27720036002441 M 0 42.27720036002441 M 0 40.27720036002441 L 0 38.27720036002441 M 0 38.27720036002441 M 0 36.27720036002441 L 0 35.4 Z" stroke-miterlimit="10" stroke-width="4"/></g></g></g></g></g><g transform="matrix(1,0,0,1,458,195)"><g transform="translate(188,123) matrix(1,0,0,1,0,0) translate(-188,-123)"><g><rect fill="rgb(0,0,0)" stroke="none" x="0" y="0" width="180" height="55" fill-opacity="0"/></g></g><g transform="translate(188,123) matrix(1,0,0,1,0,0) translate(-188,-123)"><g><rect fill="rgb(0,0,0)" stroke="none" x="0" y="0" width="180" height="41" fill-opacity="0"/></g></g><g transform="translate(188,123) matrix(1,0,0,1,0,0) translate(-188,-123)"><g><rect fill="rgb(0,0,0)" stroke="none" x="12" y="0" width="156" height="40" fill-opacity="0"/></g><text fill="rgb(255, 153, 0)" stroke="none" font-family="Arial" font-size="36px" font-style="normal" font-weight="normal" text-decoration="" line-height="41px" x="12" y="34">HUDSON</text></g><g transform="translate(188,123) matrix(1,0,0,1,0,0) translate(-188,-123)"><g><rect fill="rgb(0,0,0)" stroke="none" x="0" y="41" width="180" height="14" fill-opacity="0"/></g></g><g transform="translate(188,123) matrix(1,0,0,1,0,0) translate(-188,-123)"><g><rect fill="rgb(0,0,0)" stroke="none" x="88" y="41" width="4" height="14" fill-opacity="0"/></g></g><g transform="translate(188,123) matrix(1,0,0,1,0,0) translate(-188,-123)"><g><rect fill="rgb(0,0,0)" stroke="none" x="88" y="41" width="4" height="14" fill-opacity="0"/></g></g></g><g transform="matrix(1,0,0,1,662,199)"><g transform="translate(30,0) matrix(1,0,0,1,0,0) translate(-30,0)"><g><rect fill="rgb(0,0,0)" stroke="none" x="0" y="0" width="137" height="33" fill-opacity="0"/></g></g><g transform="translate(30,0) matrix(1,0,0,1,0,0) translate(-30,0)"><g><rect fill="rgb(0,0,0)" stroke="none" x="0" y="0" width="137" height="33" fill-opacity="0"/></g></g><g transform="translate(30,0) matrix(1,0,0,1,0,0) translate(-30,0)"><g><rect fill="rgb(0,0,0)" stroke="none" x="10" y="0" width="116" height="30" fill-opacity="0"/></g></g><g transform="translate(30,0) matrix(1,0,0,1,0,0) translate(-30,0)"><g><rect fill="rgb(0,0,0)" stroke="none" x="10" y="0" width="116" height="30" fill-opacity="0"/></g></g><g transform="translate(30,0) matrix(1,0,0,1,0,0) translate(-30,0)"><g><rect fill="rgb(0,0,0)" stroke="none" x="10" y="0" width="116" height="32" fill-opacity="0"/></g><text fill="rgb(0, 0, 0)" stroke="none" font-family="Arial" font-size="14px" font-style="normal" font-weight="normal" text-decoration="" line-height="16.5px" x="10" y="14">Transfer</text><text fill="rgb(0, 0, 0)" stroke="none" font-family="Arial" font-size="14px" font-style="normal" font-weight="normal" text-decoration="" line-height="16.5px" x="65" y="14">to</text><text fill="rgb(0, 0, 0)" stroke="none" font-family="Arial" font-size="14px" font-style="normal" font-weight="normal" text-decoration="" line-height="16.5px" x="82" y="14">Eclipse</text><text fill="rgb(0, 0, 0)" stroke="none" font-family="Arial" font-size="14px" font-style="normal" font-weight="normal" text-decoration="" line-height="16.5px" x="34" y="30">Foundation</text></g><g transform="translate(30,0) matrix(1,0,0,1,0,0) translate(-30,0)"><g/></g></g><g transform="translate(0,0) matrix(1,0,0,1,30,30)"><g><g transform="translate(0,0) scale(8.2,1.1)"><g><g transform="scale(0.12195121951219513,0.9090909090909091)"><path fill="#FFFFFF" stroke="none" d="M 0 33 L 765 33 L 765 0 L 819.9999999999999 55.00000000000001 L 765 110.00000000000001 L 765 77 L 0 77 L 0 33 Z"/><path fill="none" stroke="#333333" d="M 0 33 M 0 33 L 765 33 L 765 0 L 819.9999999999999 55.00000000000001 L 765 110.00000000000001 L 765 77 L 0 77 L 0 33 Z" stroke-miterlimit="10" stroke-width="4"/></g></g></g></g></g><g transform="matrix(1,0,0,1,95.5,26.49344521933864)"><g transform="translate(0,0)"><g transform="translate(-100,-62) translate(4.5,35.50655478066136) matrix(1,0,0,1,0,0)"><g><path fill="none" stroke="#999999" d="M 100 30.99344521933864 L 100 156" stroke-miterlimit="10" stroke-width="2"/></g></g></g></g><g transform="matrix(1,0,0,1,166,42.448604191476704)"><g transform="translate(0,0)"><g transform="translate(-170.5,-62.5) translate(4.5,20.051395808523296) matrix(1,0,0,1,0,0)"><g><path fill="none" stroke="#999999" d="M 170.5 46.948604191476704 L 170.5 155.01041121028499" stroke-miterlimit="10" stroke-width="2"/></g></g></g></g><g transform="matrix(1,0,0,1,32,17)"><g transform="translate(87,0) matrix(1,0,0,1,0,0) translate(-87,0)"><g><rect fill="rgb(0,0,0)" stroke="none" x="0" y="0" width="147" height="16" fill-opacity="0"/></g></g><g transform="translate(87,0) matrix(1,0,0,1,0,0) translate(-87,0)"><g><rect fill="rgb(0,0,0)" stroke="none" x="0" y="0" width="147" height="16" fill-opacity="0"/></g></g><g transform="translate(87,0) matrix(1,0,0,1,0,0) translate(-87,0)"><g><rect fill="rgb(0,0,0)" stroke="none" x="29" y="0" width="88" height="14" fill-opacity="0"/></g></g><g transform="translate(87,0) matrix(1,0,0,1,0,0) translate(-87,0)"><g><rect fill="rgb(0,0,0)" stroke="none" x="29" y="0" width="88" height="14" fill-opacity="0"/></g></g><g transform="translate(87,0) matrix(1,0,0,1,0,0) translate(-87,0)"><g><rect fill="rgb(0,0,0)" stroke="none" x="29" y="0" width="88" height="15" fill-opacity="0"/></g><text fill="rgb(0, 0, 0)" stroke="none" font-family="Arial" font-size="14px" font-style="normal" font-weight="normal" text-decoration="" line-height="16.5px" x="29" y="14">Summer</text><text fill="rgb(0, 0, 0)" stroke="none" font-family="Arial" font-size="14px" font-style="normal" font-weight="normal" text-decoration="" line-height="16.5px" x="86" y="14">2004</text></g><g transform="translate(87,0) matrix(1,0,0,1,0,0) translate(-87,0)"><g/></g></g><g transform="matrix(1,0,0,1,2,126)"><g transform="translate(57,0) matrix(1,0,0,1,0,0) translate(-57,0)"><g><rect fill="rgb(0,0,0)" stroke="none" x="0" y="0" width="102" height="33" fill-opacity="0"/></g></g><g transform="translate(57,0) matrix(1,0,0,1,0,0) translate(-57,0)"><g><rect fill="rgb(0,0,0)" stroke="none" x="0" y="0" width="102" height="33" fill-opacity="0"/></g></g><g transform="translate(57,0) matrix(1,0,0,1,0,0) translate(-57,0)"><g><rect fill="rgb(0,0,0)" stroke="none" x="19" y="0" width="64" height="30" fill-opacity="0"/></g></g><g transform="translate(57,0) matrix(1,0,0,1,0,0) translate(-57,0)"><g><rect fill="rgb(0,0,0)" stroke="none" x="19" y="0" width="64" height="30" fill-opacity="0"/></g></g><g transform="translate(57,0) matrix(1,0,0,1,0,0) translate(-57,0)"><g><rect fill="rgb(0,0,0)" stroke="none" x="19" y="0" width="64" height="32" fill-opacity="0"/></g><text fill="rgb(0, 0, 0)" stroke="none" font-family="Arial" font-size="14px" font-style="normal" font-weight="normal" text-decoration="" line-height="16.5px" x="19" y="14">Kicking</text><text fill="rgb(0, 0, 0)" stroke="none" font-family="Arial" font-size="14px" font-style="normal" font-weight="normal" text-decoration="" line-height="16.5px" x="68" y="14">off</text><text fill="rgb(0, 0, 0)" stroke="none" font-family="Arial" font-size="14px" font-style="normal" font-weight="normal" text-decoration="" line-height="16.5px" x="27" y="30">Hudson</text></g><g transform="translate(57,0) matrix(1,0,0,1,0,0) translate(-57,0)"><g/></g></g><g transform="matrix(1,0,0,1,92,30)"><g transform="translate(84,0) matrix(1,0,0,1,0,0) translate(-84,0)"><g><rect fill="rgb(0,0,0)" stroke="none" x="0" y="0" width="147" height="16" fill-opacity="0"/></g></g><g transform="translate(84,0) matrix(1,0,0,1,0,0) translate(-84,0)"><g><rect fill="rgb(0,0,0)" stroke="none" x="0" y="0" width="147" height="16" fill-opacity="0"/></g></g><g transform="translate(84,0) matrix(1,0,0,1,0,0) translate(-84,0)"><g><rect fill="rgb(0,0,0)" stroke="none" x="28" y="0" width="91" height="14" fill-opacity="0"/></g></g><g transform="translate(84,0) matrix(1,0,0,1,0,0) translate(-84,0)"><g><rect fill="rgb(0,0,0)" stroke="none" x="28" y="0" width="91" height="14" fill-opacity="0"/></g></g><g transform="translate(84,0) matrix(1,0,0,1,0,0) translate(-84,0)"><g><rect fill="rgb(0,0,0)" stroke="none" x="28" y="0" width="91" height="15" fill-opacity="0"/></g><text fill="rgb(0, 0, 0)" stroke="none" font-family="Arial" font-size="14px" font-style="normal" font-weight="normal" text-decoration="" line-height="16.5px" x="28" y="14">February</text><text fill="rgb(0, 0, 0)" stroke="none" font-family="Arial" font-size="14px" font-style="normal" font-weight="normal" text-decoration="" line-height="16.5px" x="88" y="14">2005</text></g><g transform="translate(84,0) matrix(1,0,0,1,0,0) translate(-84,0)"><g/></g></g><g transform="matrix(1,0,0,1,167,126)"><g transform="translate(3,0) matrix(1,0,0,1,0,0) translate(-3,0)"><g><rect fill="rgb(0,0,0)" stroke="none" x="0" y="0" width="83" height="33" fill-opacity="0"/></g></g><g transform="translate(3,0) matrix(1,0,0,1,0,0) translate(-3,0)"><g><rect fill="rgb(0,0,0)" stroke="none" x="0" y="0" width="83" height="33" fill-opacity="0"/></g></g><g transform="translate(3,0) matrix(1,0,0,1,0,0) translate(-3,0)"><g><rect fill="rgb(0,0,0)" stroke="none" x="3" y="0" width="77" height="32" fill-opacity="0"/></g><text fill="rgb(0, 0, 0)" stroke="none" font-family="Arial" font-size="14px" font-style="normal" font-weight="normal" text-decoration="" line-height="16.5px" x="3" y="14">First</text><text fill="rgb(0, 0, 0)" stroke="none" font-family="Arial" font-size="14px" font-style="normal" font-weight="normal" text-decoration="" line-height="16.5px" x="34" y="14">release</text><text fill="rgb(0, 0, 0)" stroke="none" font-family="Arial" font-size="14px" font-style="normal" font-weight="normal" text-decoration="" line-height="16.5px" x="7" y="30">on</text><text fill="rgb(0, 0, 0)" stroke="none" font-family="Arial" font-size="14px" font-style="normal" font-weight="normal" text-decoration="" line-height="16.5px" x="26" y="30">java</text><text fill="rgb(0, 0, 0)" stroke="none" font-family="Arial" font-size="14px" font-style="normal" font-weight="normal" text-decoration="" line-height="16.5px" x="53" y="30">.</text><text fill="rgb(0, 0, 0)" stroke="none" font-family="Arial" font-size="14px" font-style="normal" font-weight="normal" text-decoration="" line-height="16.5px" x="56" y="30">net</text></g></g><g transform="matrix(1,0,0,1,399.5,40.49541311018052)"><g transform="translate(0,0)"><g transform="translate(-404,-22) translate(4.5,-18.49541311018052) matrix(1,0,0,1,0,0)"><g><path fill="none" stroke="#999999" d="M 404.00000000000006 44.99541311018052 L 404 154.0040310317309" stroke-miterlimit="10" stroke-width="2"/></g></g></g></g><g transform="matrix(1,0,0,1,327,21)"><g transform="translate(48,0) matrix(1,0,0,1,0,0) translate(-48,0)"><g><rect fill="rgb(0,0,0)" stroke="none" x="0" y="0" width="97" height="33" fill-opacity="0"/></g></g><g transform="translate(48,0) matrix(1,0,0,1,0,0) translate(-48,0)"><g><rect fill="rgb(0,0,0)" stroke="none" x="0" y="0" width="97" height="33" fill-opacity="0"/></g></g><g transform="translate(48,0) matrix(1,0,0,1,0,0) translate(-48,0)"><g><rect fill="rgb(0,0,0)" stroke="none" x="16" y="0" width="65" height="30" fill-opacity="0"/></g></g><g transform="translate(48,0) matrix(1,0,0,1,0,0) translate(-48,0)"><g><rect fill="rgb(0,0,0)" stroke="none" x="16" y="0" width="65" height="30" fill-opacity="0"/></g></g><g transform="translate(48,0) matrix(1,0,0,1,0,0) translate(-48,0)"><g><rect fill="rgb(0,0,0)" stroke="none" x="16" y="0" width="65" height="32" fill-opacity="0"/></g><text fill="rgb(0, 0, 0)" stroke="none" font-family="Arial" font-size="14px" font-style="normal" font-weight="normal" text-decoration="" line-height="16.5px" x="16" y="14">December</text><text fill="rgb(0, 0, 0)" stroke="none" font-family="Arial" font-size="14px" font-style="normal" font-weight="normal" text-decoration="" line-height="16.5px" x="33" y="30">2010</text></g><g transform="translate(48,0) matrix(1,0,0,1,0,0) translate(-48,0)"><g/></g></g><g transform="matrix(1,0,0,1,272,119)"><g transform="translate(224,99) matrix(1,0,0,1,0,0) translate(-224,-99)"><g><rect fill="rgb(0,0,0)" stroke="none" x="0" y="0" width="127" height="63" fill-opacity="0"/></g></g><g transform="translate(224,99) matrix(1,0,0,1,0,0) translate(-224,-99)"><g><rect fill="rgb(0,0,0)" stroke="none" x="0" y="0" width="127" height="33" fill-opacity="0"/></g></g><g transform="translate(224,99) matrix(1,0,0,1,0,0) translate(-224,-99)"><g><rect fill="rgb(0,0,0)" stroke="none" x="1" y="0" width="48" height="15" fill-opacity="0"/></g></g><g transform="translate(224,99) matrix(1,0,0,1,0,0) translate(-224,-99)"><g><rect fill="rgb(0,0,0)" stroke="none" x="1" y="0" width="48" height="15" fill-opacity="0"/></g><text fill="rgb(0, 0, 0)" stroke="none" font-family="Arial" font-size="14px" font-style="normal" font-weight="normal" text-decoration="" line-height="16.5px" x="1" y="14">Hudson</text></g><g transform="translate(224,99) matrix(1,0,0,1,0,0) translate(-224,-99)"><g><rect fill="rgb(0,0,0)" stroke="none" x="49" y="0" width="108" height="30" fill-opacity="0"/></g></g><g transform="translate(224,99) matrix(1,0,0,1,0,0) translate(-224,-99)"><g><rect fill="rgb(0,0,0)" stroke="none" x="49" y="0" width="108" height="32" fill-opacity="0"/></g><text fill="rgb(0, 0, 0)" stroke="none" font-family="Arial" font-size="14px" font-style="normal" font-weight="normal" text-decoration="" line-height="16.5px" x="49" y="14">®</text><text fill="rgb(0, 0, 0)" stroke="none" font-family="Arial" font-size="14px" font-style="normal" font-weight="normal" text-decoration="" line-height="16.5px" x="64" y="14">trademark</text><text fill="rgb(0, 0, 0)" stroke="none" font-family="Arial" font-size="14px" font-style="normal" font-weight="normal" text-decoration="" line-height="16.5px" x="18" y="30">kept</text><text fill="rgb(0, 0, 0)" stroke="none" font-family="Arial" font-size="14px" font-style="normal" font-weight="normal" text-decoration="" line-height="16.5px" x="49" y="30">by</text><text fill="rgb(0, 0, 0)" stroke="none" font-family="Arial" font-size="14px" font-style="normal" font-weight="normal" text-decoration="" line-height="16.5px" x="67" y="30">Oracle</text></g><g transform="translate(224,99) matrix(1,0,0,1,0,0) translate(-224,-99)"><g/></g><g transform="translate(224,99) matrix(1,0,0,1,0,0) translate(-224,-99)"><g><rect fill="rgb(0,0,0)" stroke="none" x="0" y="33" width="127" height="14" fill-opacity="0"/></g></g><g transform="translate(224,99) matrix(1,0,0,1,0,0) translate(-224,-99)"><g><rect fill="rgb(0,0,0)" stroke="none" x="62" y="33" width="4" height="14" fill-opacity="0"/></g></g><g transform="translate(224,99) matrix(1,0,0,1,0,0) translate(-224,-99)"><g><rect fill="rgb(0,0,0)" stroke="none" x="62" y="33" width="4" height="14" fill-opacity="0"/></g></g></g><g transform="matrix(1,0,0,1,442.5,15.466425645324136)"><g transform="translate(0,0)"><g transform="translate(-447,-12) translate(4.5,-3.4664256453241364) matrix(1,0,0,1,0,0)"><g><path fill="none" stroke="#999999" d="M 447 19.966425645324136 L 447.0000000000001 250.01956153003272" stroke-miterlimit="10" stroke-width="2"/></g></g></g></g><g transform="matrix(1,0,0,1,377,3)"><g transform="translate(96,0) matrix(1,0,0,1,0,0) translate(-96,0)"><g><rect fill="rgb(0,0,0)" stroke="none" x="0" y="0" width="147" height="16" fill-opacity="0"/></g></g><g transform="translate(96,0) matrix(1,0,0,1,0,0) translate(-96,0)"><g><rect fill="rgb(0,0,0)" stroke="none" x="0" y="0" width="147" height="16" fill-opacity="0"/></g></g><g transform="translate(96,0) matrix(1,0,0,1,0,0) translate(-96,0)"><g><rect fill="rgb(0,0,0)" stroke="none" x="32" y="0" width="84" height="14" fill-opacity="0"/></g></g><g transform="translate(96,0) matrix(1,0,0,1,0,0) translate(-96,0)"><g><rect fill="rgb(0,0,0)" stroke="none" x="32" y="0" width="84" height="14" fill-opacity="0"/></g></g><g transform="translate(96,0) matrix(1,0,0,1,0,0) translate(-96,0)"><g><rect fill="rgb(0,0,0)" stroke="none" x="32" y="0" width="84" height="15" fill-opacity="0"/></g><text fill="rgb(0, 0, 0)" stroke="none" font-family="Arial" font-size="14px" font-style="normal" font-weight="normal" text-decoration="" line-height="16.5px" x="32" y="14">January</text><text fill="rgb(0, 0, 0)" stroke="none" font-family="Arial" font-size="14px" font-style="normal" font-weight="normal" text-decoration="" line-height="16.5px" x="85" y="14">2011</text></g><g transform="translate(96,0) matrix(1,0,0,1,0,0) translate(-96,0)"><g/></g></g><g transform="matrix(1,0,0,1,452,132)"><g transform="translate(284,131) matrix(1,0,0,1,0,0) translate(-284,-131)"><g><rect fill="rgb(0,0,0)" stroke="none" x="0" y="0" width="137" height="46" fill-opacity="0"/></g></g><g transform="translate(284,131) matrix(1,0,0,1,0,0) translate(-284,-131)"><g><rect fill="rgb(0,0,0)" stroke="none" x="0" y="0" width="137" height="33" fill-opacity="0"/></g></g><g transform="translate(284,131) matrix(1,0,0,1,0,0) translate(-284,-131)"><g><rect fill="rgb(0,0,0)" stroke="none" x="16" y="0" width="110" height="32" fill-opacity="0"/></g></g><g transform="translate(284,131) matrix(1,0,0,1,0,0) translate(-284,-131)"><g><rect fill="rgb(0,0,0)" stroke="none" x="16" y="0" width="110" height="32" fill-opacity="0"/></g><text fill="rgb(0, 0, 0)" stroke="none" font-family="Arial" font-size="14px" font-style="normal" font-weight="normal" text-decoration="" line-height="16.5px" x="16" y="14">Community</text><text fill="rgb(0, 0, 0)" stroke="none" font-family="Arial" font-size="14px" font-style="normal" font-weight="normal" text-decoration="" line-height="16.5px" x="91" y="14">forks</text><text fill="rgb(0, 0, 0)" stroke="none" font-family="Arial" font-size="14px" font-style="normal" font-weight="normal" text-decoration="" line-height="16.5px" x="11" y="30">Hudson</text></g><g transform="translate(284,131) matrix(1,0,0,1,0,0) translate(-284,-131)"><g><rect fill="rgb(0,0,0)" stroke="none" x="59" y="16" width="67" height="14" fill-opacity="0"/></g></g><g transform="translate(284,131) matrix(1,0,0,1,0,0) translate(-284,-131)"><g><rect fill="rgb(0,0,0)" stroke="none" x="59" y="16" width="67" height="15" fill-opacity="0"/></g><text fill="rgb(0, 0, 0)" stroke="none" font-family="Arial" font-size="14px" font-style="normal" font-weight="normal" text-decoration="" line-height="16.5px" x="63" y="30">to</text><text fill="rgb(0, 0, 0)" stroke="none" font-family="Arial" font-size="14px" font-style="normal" font-weight="normal" text-decoration="" line-height="16.5px" x="78" y="30">Jenkins</text></g><g transform="translate(284,131) matrix(1,0,0,1,0,0) translate(-284,-131)"><g/></g><g transform="translate(284,131) matrix(1,0,0,1,0,0) translate(-284,-131)"><g><rect fill="rgb(0,0,0)" stroke="none" x="0" y="33" width="137" height="14" fill-opacity="0"/></g></g><g transform="translate(284,131) matrix(1,0,0,1,0,0) translate(-284,-131)"><g><rect fill="rgb(0,0,0)" stroke="none" x="67" y="33" width="3" height="14" fill-opacity="0"/></g></g><g transform="translate(284,131) matrix(1,0,0,1,0,0) translate(-284,-131)"><g><rect fill="rgb(0,0,0)" stroke="none" x="67" y="33" width="3" height="14" fill-opacity="0"/></g></g></g><g transform="matrix(1,0,0,1,55,63)"><g transform="translate(357,0) matrix(1,0,0,1,0,0) translate(-357,0)"><g><rect fill="rgb(0,0,0)" stroke="none" x="0" y="0" width="394" height="41" fill-opacity="0"/></g></g><g transform="translate(357,0) matrix(1,0,0,1,0,0) translate(-357,0)"><g><rect fill="rgb(0,0,0)" stroke="none" x="0" y="0" width="394" height="41" fill-opacity="0"/></g></g><g transform="translate(357,0) matrix(1,0,0,1,0,0) translate(-357,0)"><g><rect fill="rgb(0,0,0)" stroke="none" x="119" y="0" width="155" height="14" fill-opacity="0"/></g></g><g transform="translate(357,0) matrix(1,0,0,1,0,0) translate(-357,0)"><g><rect fill="rgb(0,0,0)" stroke="none" x="119" y="0" width="155" height="14" fill-opacity="0"/></g></g><g transform="translate(357,0) matrix(1,0,0,1,0,0) translate(-357,0)"><g><rect fill="rgb(0,0,0)" stroke="none" x="119" y="0" width="155" height="40" fill-opacity="0"/></g><text fill="rgb(255, 153, 0)" stroke="none" font-family="Arial" font-size="36px" font-style="normal" font-weight="normal" text-decoration="" line-height="41px" x="119" y="34">HUDSON</text></g><g transform="translate(357,0) matrix(1,0,0,1,0,0) translate(-357,0)"><g/></g></g><g transform="matrix(1,0,0,1,452,63)"><g transform="translate(227,0) matrix(1,0,0,1,0,0) translate(-227,0)"><g><rect fill="rgb(0,0,0)" stroke="none" x="0" y="0" width="192" height="82" fill-opacity="0"/></g></g><g transform="translate(227,0) matrix(1,0,0,1,0,0) translate(-227,0)"><g><rect fill="rgb(0,0,0)" stroke="none" x="0" y="0" width="192" height="41" fill-opacity="0"/></g></g><g transform="translate(227,0) matrix(1,0,0,1,0,0) translate(-227,0)"><g><rect fill="rgb(0,0,0)" stroke="none" x="15" y="0" width="163" height="14" fill-opacity="0"/></g></g><g transform="translate(227,0) matrix(1,0,0,1,0,0) translate(-227,0)"><g><rect fill="rgb(0,0,0)" stroke="none" x="15" y="0" width="163" height="14" fill-opacity="0"/></g></g><g transform="translate(227,0) matrix(1,0,0,1,0,0) translate(-227,0)"><g><rect fill="rgb(0,0,0)" stroke="none" x="15" y="0" width="163" height="40" fill-opacity="0"/></g></g><g transform="translate(227,0) matrix(1,0,0,1,0,0) translate(-227,0)"><g><rect fill="rgb(0,0,0)" stroke="none" x="15" y="0" width="153" height="40" fill-opacity="0"/></g><text fill="rgb(153, 0, 255)" stroke="none" font-family="Arial" font-size="36px" font-style="normal" font-weight="normal" text-decoration="" line-height="41px" x="15" y="34">JENKINS</text></g><g transform="translate(227,0) matrix(1,0,0,1,0,0) translate(-227,0)"><g><rect fill="rgb(0,0,0)" stroke="none" x="167" y="0" width="10" height="40" fill-opacity="0"/></g></g><g transform="translate(227,0) matrix(1,0,0,1,0,0) translate(-227,0)"><g/></g></g><g transform="matrix(1,0,0,1,649.5417542635449,16.4100207018397)"><g transform="translate(0,0)"><g transform="translate(-654,-219) translate(4.458245736455069,202.5899792981603) matrix(1,0,0,1,0,0)"><g><path fill="none" stroke="#999999" d="M 654.0417542635449 253.01885230558918 L 654.0417542635449 20.9100207018397" stroke-miterlimit="10" stroke-width="2"/></g></g></g></g><g transform="matrix(1,0,0,1,582,1)"><g transform="translate(108,0) matrix(1,0,0,1,0,0) translate(-108,0)"><g><rect fill="rgb(0,0,0)" stroke="none" x="0" y="0" width="147" height="16" fill-opacity="0"/></g></g><g transform="translate(108,0) matrix(1,0,0,1,0,0) translate(-108,0)"><g><rect fill="rgb(0,0,0)" stroke="none" x="0" y="0" width="147" height="16" fill-opacity="0"/></g></g><g transform="translate(108,0) matrix(1,0,0,1,0,0) translate(-108,0)"><g><rect fill="rgb(0,0,0)" stroke="none" x="36" y="0" width="75" height="14" fill-opacity="0"/></g></g><g transform="translate(108,0) matrix(1,0,0,1,0,0) translate(-108,0)"><g><rect fill="rgb(0,0,0)" stroke="none" x="36" y="0" width="75" height="14" fill-opacity="0"/></g></g><g transform="translate(108,0) matrix(1,0,0,1,0,0) translate(-108,0)"><g><rect fill="rgb(0,0,0)" stroke="none" x="36" y="0" width="75" height="15" fill-opacity="0"/></g><text fill="rgb(0, 0, 0)" stroke="none" font-family="Arial" font-size="14px" font-style="normal" font-weight="normal" text-decoration="" line-height="16.5px" x="36" y="14">March</text><text fill="rgb(0, 0, 0)" stroke="none" font-family="Arial" font-size="14px" font-style="normal" font-weight="normal" text-decoration="" line-height="16.5px" x="79" y="14">2013</text></g><g transform="translate(108,0) matrix(1,0,0,1,0,0) translate(-108,0)"><g/></g></g><g transform="matrix(1,0,0,1,716.5,29.5)"><g transform="translate(0,0)"><g transform="translate(-721,-34) translate(4.5,4.5) matrix(1,0,0,1,0,0)"><g><path fill="none" stroke="#999999" d="M 721 34 L 721 165.0953851209111" stroke-miterlimit="10" stroke-width="2"/></g></g></g></g><g transform="matrix(1,0,0,1,703,21)"><g transform="translate(9,0) matrix(1,0,0,1,0,0) translate(-9,0)"><g><rect fill="rgb(0,0,0)" stroke="none" x="0" y="0" width="37" height="17" fill-opacity="0"/></g></g><g transform="translate(9,0) matrix(1,0,0,1,0,0) translate(-9,0)"><g><rect fill="rgb(0,0,0)" stroke="none" x="0" y="0" width="37" height="16" fill-opacity="0"/></g></g><g transform="translate(9,0) matrix(1,0,0,1,0,0) translate(-9,0)"><g><rect fill="rgb(0,0,0)" stroke="none" x="3" y="0" width="31" height="14" fill-opacity="0"/></g></g><g transform="translate(9,0) matrix(1,0,0,1,0,0) translate(-9,0)"><g><rect fill="rgb(0,0,0)" stroke="none" x="3" y="0" width="31" height="14" fill-opacity="0"/></g></g><g transform="translate(9,0) matrix(1,0,0,1,0,0) translate(-9,0)"><g><rect fill="rgb(0,0,0)" stroke="none" x="3" y="0" width="31" height="15" fill-opacity="0"/></g><text fill="rgb(0, 0, 0)" stroke="none" font-family="Arial" font-size="14px" font-style="normal" font-weight="normal" text-decoration="" line-height="16.5px" x="3" y="14">2015</text></g><g transform="translate(9,0) matrix(1,0,0,1,0,0) translate(-9,0)"><g/></g></g><g transform="matrix(1,0,0,1,712,155)"><g transform="translate(36,48) matrix(1,0,0,1,0,0) translate(-36,-48)"><g><rect fill="rgb(0,0,0)" stroke="none" x="0" y="0" width="137" height="33" fill-opacity="0"/></g></g><g transform="translate(36,48) matrix(1,0,0,1,0,0) translate(-36,-48)"><g><rect fill="rgb(0,0,0)" stroke="none" x="0" y="0" width="137" height="16" fill-opacity="0"/></g></g><g transform="translate(36,48) matrix(1,0,0,1,0,0) translate(-36,-48)"><g><rect fill="rgb(0,0,0)" stroke="none" x="8" y="0" width="121" height="14" fill-opacity="0"/></g></g><g transform="translate(36,48) matrix(1,0,0,1,0,0) translate(-36,-48)"><g><rect fill="rgb(0,0,0)" stroke="none" x="8" y="0" width="121" height="14" fill-opacity="0"/></g></g><g transform="translate(36,48) matrix(1,0,0,1,0,0) translate(-36,-48)"><g><rect fill="rgb(0,0,0)" stroke="none" x="8" y="0" width="121" height="15" fill-opacity="0"/></g><text fill="rgb(0, 0, 0)" stroke="none" font-family="Arial" font-size="14px" font-style="normal" font-weight="normal" text-decoration="" line-height="16.5px" x="8" y="14">More</text><text fill="rgb(0, 0, 0)" stroke="none" font-family="Arial" font-size="14px" font-style="normal" font-weight="normal" text-decoration="" line-height="16.5px" x="44" y="14">than</text><text fill="rgb(0, 0, 0)" stroke="none" font-family="Arial" font-size="14px" font-style="normal" font-weight="normal" text-decoration="" line-height="16.5px" x="75" y="14">100</text><text fill="rgb(0, 0, 0)" stroke="none" font-family="Arial" font-size="14px" font-style="normal" font-weight="normal" text-decoration="" line-height="16.5px" x="98" y="14">.</text><text fill="rgb(0, 0, 0)" stroke="none" font-family="Arial" font-size="14px" font-style="normal" font-weight="normal" text-decoration="" line-height="16.5px" x="102" y="14">000</text></g><g transform="translate(36,48) matrix(1,0,0,1,0,0) translate(-36,-48)"><g/></g><g transform="translate(36,48) matrix(1,0,0,1,0,0) translate(-36,-48)"><g><rect fill="rgb(0,0,0)" stroke="none" x="0" y="16" width="137" height="16" fill-opacity="0"/></g></g><g transform="translate(36,48) matrix(1,0,0,1,0,0) translate(-36,-48)"><g><rect fill="rgb(0,0,0)" stroke="none" x="6" y="16" width="125" height="14" fill-opacity="0"/></g></g><g transform="translate(36,48) matrix(1,0,0,1,0,0) translate(-36,-48)"><g><rect fill="rgb(0,0,0)" stroke="none" x="6" y="16" width="125" height="15" fill-opacity="0"/></g><text fill="rgb(0, 0, 0)" stroke="none" font-family="Arial" font-size="14px" font-style="normal" font-weight="normal" text-decoration="" line-height="16.5px" x="6" y="30">Jenkins</text><text fill="rgb(0, 0, 0)" stroke="none" font-family="Arial" font-size="14px" font-style="normal" font-weight="normal" text-decoration="" line-height="16.5px" x="57" y="30">installations</text></g></g><g transform="matrix(1,0,0,1,333,199)"><g transform="translate(39,0) matrix(1,0,0,1,0,0) translate(-39,0)"><g><rect fill="rgb(0,0,0)" stroke="none" x="0" y="0" width="116" height="33" fill-opacity="0"/></g></g><g transform="translate(39,0) matrix(1,0,0,1,0,0) translate(-39,0)"><g><rect fill="rgb(0,0,0)" stroke="none" x="0" y="0" width="116" height="33" fill-opacity="0"/></g></g><g transform="translate(39,0) matrix(1,0,0,1,0,0) translate(-39,0)"><g><rect fill="rgb(0,0,0)" stroke="none" x="13" y="0" width="90" height="30" fill-opacity="0"/></g></g><g transform="translate(39,0) matrix(1,0,0,1,0,0) translate(-39,0)"><g><rect fill="rgb(0,0,0)" stroke="none" x="13" y="0" width="90" height="30" fill-opacity="0"/></g></g><g transform="translate(39,0) matrix(1,0,0,1,0,0) translate(-39,0)"><g><rect fill="rgb(0,0,0)" stroke="none" x="13" y="0" width="90" height="32" fill-opacity="0"/></g><text fill="rgb(0, 0, 0)" stroke="none" font-family="Arial" font-size="14px" font-style="normal" font-weight="normal" text-decoration="" line-height="16.5px" x="13" y="14">Oracle</text><text fill="rgb(0, 0, 0)" stroke="none" font-family="Arial" font-size="14px" font-style="normal" font-weight="normal" text-decoration="" line-height="16.5px" x="58" y="14">pushes</text><text fill="rgb(0, 0, 0)" stroke="none" font-family="Arial" font-size="14px" font-style="normal" font-weight="normal" text-decoration="" line-height="16.5px" x="34" y="30">Hudson</text></g><g transform="translate(39,0) matrix(1,0,0,1,0,0) translate(-39,0)"><g/></g></g></g></svg>