<svg version="1.1" xmlns="http://www.w3.org/2000/svg" xmlns:xlink="http://www.w3.org/1999/xlink" width="870" height="185"><style xmlns="http://www.w3.org/1999/xhtml"></style><defs/><g transform="translate(0,0)"><g><rect fill="#FFFFFF" stroke="none" x="0" y="0" width="870" height="185"/></g><g transform="translate(0,0) matrix(1,0,0,1,30,30)"><g><g transform="translate(0,0) scale(8.2,1.1)"><g><g transform="scale(0.12195121951219513,0.9090909090909091)"><path fill="#FFFFFF" stroke="none" d="M 0 33 L 765 33 L 765 0 L 819.9999999999999 55.00000000000001 L 765 110.00000000000001 L 765 77 L 0 77 L 0 33 Z"/><path fill="none" stroke="#333333" d="M 0 33 M 0 33 L 765 33 L 765 0 L 819.9999999999999 55.00000000000001 L 765 110.00000000000001 L 765 77 L 0 77 L 0 33 Z" stroke-miterlimit="10" stroke-width="4"/></g></g></g></g></g><g transform="matrix(1,0,0,1,95.5,26.49344521933864)"><g transform="translate(0,0)"><g transform="translate(-100,-62) translate(4.5,35.50655478066136) matrix(1,0,0,1,0,0)"><g><path fill="none" stroke="#999999" d="M 100 30.99344521933864 L 100 156" stroke-miterlimit="10" stroke-width="2"/></g></g></g></g><g transform="matrix(1,0,0,1,166,42.448604191476704)"><g transform="translate(0,0)"><g transform="translate(-170.5,-62.5) translate(4.5,20.051395808523296) matrix(1,0,0,1,0,0)"><g><path fill="none" stroke="#999999" d="M 170.5 46.948604191476704 L 170.5 155.01041121028499" stroke-miterlimit="10" stroke-width="2"/></g></g></g></g><g transform="matrix(1,0,0,1,32,17)"><g transform="translate(87,0) matrix(1,0,0,1,0,0) translate(-87,0)"><g><rect fill="rgb(0,0,0)" stroke="none" x="0" y="0" width="147" height="16" fill-opacity="0"/></g></g><g transform="translate(87,0) matrix(1,0,0,1,0,0) translate(-87,0)"><g><rect fill="rgb(0,0,0)" stroke="none" x="0" y="0" width="147" height="16" fill-opacity="0"/></g></g><g transform="translate(87,0) matrix(1,0,0,1,0,0) translate(-87,0)"><g><rect fill="rgb(0,0,0)" stroke="none" x="29" y="0" width="88" height="14" fill-opacity="0"/></g></g><g transform="translate(87,0) matrix(1,0,0,1,0,0) translate(-87,0)"><g><rect fill="rgb(0,0,0)" stroke="none" x="29" y="0" width="88" height="14" fill-opacity="0"/></g></g><g transform="translate(87,0) matrix(1,0,0,1,0,0) translate(-87,0)"><g><rect fill="rgb(0,0,0)" stroke="none" x="29" y="0" width="88" height="15" fill-opacity="0"/></g><text fill="rgb(0, 0, 0)" stroke="none" font-family="Arial" font-size="14px" font-style="normal" font-weight="normal" text-decoration="" line-height="16.5px" x="29" y="14">Summer</text><text fill="rgb(0, 0, 0)" stroke="none" font-family="Arial" font-size="14px" font-style="normal" font-weight="normal" text-decoration="" line-height="16.5px" x="86" y="14">2004</text></g><g transform="translate(87,0) matrix(1,0,0,1,0,0) translate(-87,0)"><g/></g></g><g transform="matrix(1,0,0,1,2,126)"><g transform="translate(57,0) matrix(1,0,0,1,0,0) translate(-57,0)"><g><rect fill="rgb(0,0,0)" stroke="none" x="0" y="0" width="102" height="33" fill-opacity="0"/></g></g><g transform="translate(57,0) matrix(1,0,0,1,0,0) translate(-57,0)"><g><rect fill="rgb(0,0,0)" stroke="none" x="0" y="0" width="102" height="33" fill-opacity="0"/></g></g><g transform="translate(57,0) matrix(1,0,0,1,0,0) translate(-57,0)"><g><rect fill="rgb(0,0,0)" stroke="none" x="19" y="0" width="64" height="30" fill-opacity="0"/></g></g><g transform="translate(57,0) matrix(1,0,0,1,0,0) translate(-57,0)"><g><rect fill="rgb(0,0,0)" stroke="none" x="19" y="0" width="64" height="30" fill-opacity="0"/></g></g><g transform="translate(57,0) matrix(1,0,0,1,0,0) translate(-57,0)"><g><rect fill="rgb(0,0,0)" stroke="none" x="19" y="0" width="64" height="32" fill-opacity="0"/></g><text fill="rgb(0, 0, 0)" stroke="none" font-family="Arial" font-size="14px" font-style="normal" font-weight="normal" text-decoration="" line-height="16.5px" x="19" y="14">Kicking</text><text fill="rgb(0, 0, 0)" stroke="none" font-family="Arial" font-size="14px" font-style="normal" font-weight="normal" text-decoration="" line-height="16.5px" x="68" y="14">off</text><text fill="rgb(0, 0, 0)" stroke="none" font-family="Arial" font-size="14px" font-style="normal" font-weight="normal" text-decoration="" line-height="16.5px" x="27" y="30">Hudson</text></g><g transform="translate(57,0) matrix(1,0,0,1,0,0) translate(-57,0)"><g/></g></g><g transform="matrix(1,0,0,1,92,30)"><g transform="translate(84,0) matrix(1,0,0,1,0,0) translate(-84,0)"><g><rect fill="rgb(0,0,0)" stroke="none" x="0" y="0" width="147" height="16" fill-opacity="0"/></g></g><g transform="translate(84,0) matrix(1,0,0,1,0,0) translate(-84,0)"><g><rect fill="rgb(0,0,0)" stroke="none" x="0" y="0" width="147" height="16" fill-opacity="0"/></g></g><g transform="translate(84,0) matrix(1,0,0,1,0,0) translate(-84,0)"><g><rect fill="rgb(0,0,0)" stroke="none" x="28" y="0" width="91" height="14" fill-opacity="0"/></g></g><g transform="translate(84,0) matrix(1,0,0,1,0,0) translate(-84,0)"><g><rect fill="rgb(0,0,0)" stroke="none" x="28" y="0" width="91" height="14" fill-opacity="0"/></g></g><g transform="translate(84,0) matrix(1,0,0,1,0,0) translate(-84,0)"><g><rect fill="rgb(0,0,0)" stroke="none" x="28" y="0" width="91" height="15" fill-opacity="0"/></g><text fill="rgb(0, 0, 0)" stroke="none" font-family="Arial" font-size="14px" font-style="normal" font-weight="normal" text-decoration="" line-height="16.5px" x="28" y="14">February</text><text fill="rgb(0, 0, 0)" stroke="none" font-family="Arial" font-size="14px" font-style="normal" font-weight="normal" text-decoration="" line-height="16.5px" x="88" y="14">2005</text></g><g transform="translate(84,0) matrix(1,0,0,1,0,0) translate(-84,0)"><g/></g></g><g transform="matrix(1,0,0,1,167,126)"><g transform="translate(3,0) matrix(1,0,0,1,0,0) translate(-3,0)"><g><rect fill="rgb(0,0,0)" stroke="none" x="0" y="0" width="83" height="33" fill-opacity="0"/></g></g><g transform="translate(3,0) matrix(1,0,0,1,0,0) translate(-3,0)"><g><rect fill="rgb(0,0,0)" stroke="none" x="0" y="0" width="83" height="33" fill-opacity="0"/></g></g><g transform="translate(3,0) matrix(1,0,0,1,0,0) translate(-3,0)"><g><rect fill="rgb(0,0,0)" stroke="none" x="3" y="0" width="77" height="32" fill-opacity="0"/></g><text fill="rgb(0, 0, 0)" stroke="none" font-family="Arial" font-size="14px" font-style="normal" font-weight="normal" text-decoration="" line-height="16.5px" x="3" y="14">First</text><text fill="rgb(0, 0, 0)" stroke="none" font-family="Arial" font-size="14px" font-style="normal" font-weight="normal" text-decoration="" line-height="16.5px" x="34" y="14">release</text><text fill="rgb(0, 0, 0)" stroke="none" font-family="Arial" font-size="14px" font-style="normal" font-weight="normal" text-decoration="" line-height="16.5px" x="7" y="30">on</text><text fill="rgb(0, 0, 0)" stroke="none" font-family="Arial" font-size="14px" font-style="normal" font-weight="normal" text-decoration="" line-height="16.5px" x="26" y="30">java</text><text fill="rgb(0, 0, 0)" stroke="none" font-family="Arial" font-size="14px" font-style="normal" font-weight="normal" text-decoration="" line-height="16.5px" x="53" y="30">.</text><text fill="rgb(0, 0, 0)" stroke="none" font-family="Arial" font-size="14px" font-style="normal" font-weight="normal" text-decoration="" line-height="16.5px" x="56" y="30">net</text></g></g><g transform="matrix(1,0,0,1,399.5,40.49541311018052)"><g transform="translate(0,0)"><g transform="translate(-404,-22) translate(4.5,-18.49541311018052) matrix(1,0,0,1,0,0)"><g><path fill="none" stroke="#999999" d="M 404.00000000000006 44.99541311018052 L 404 154.0040310317309" stroke-miterlimit="10" stroke-width="2"/></g></g></g></g><g transform="matrix(1,0,0,1,327,21)"><g transform="translate(48,0) matrix(1,0,0,1,0,0) translate(-48,0)"><g><rect fill="rgb(0,0,0)" stroke="none" x="0" y="0" width="97" height="33" fill-opacity="0"/></g></g><g transform="translate(48,0) matrix(1,0,0,1,0,0) translate(-48,0)"><g><rect fill="rgb(0,0,0)" stroke="none" x="0" y="0" width="97" height="33" fill-opacity="0"/></g></g><g transform="translate(48,0) matrix(1,0,0,1,0,0) translate(-48,0)"><g><rect fill="rgb(0,0,0)" stroke="none" x="16" y="0" width="65" height="30" fill-opacity="0"/></g></g><g transform="translate(48,0) matrix(1,0,0,1,0,0) translate(-48,0)"><g><rect fill="rgb(0,0,0)" stroke="none" x="16" y="0" width="65" height="30" fill-opacity="0"/></g></g><g transform="translate(48,0) matrix(1,0,0,1,0,0) translate(-48,0)"><g><rect fill="rgb(0,0,0)" stroke="none" x="16" y="0" width="65" height="32" fill-opacity="0"/></g><text fill="rgb(0, 0, 0)" stroke="none" font-family="Arial" font-size="14px" font-style="normal" font-weight="normal" text-decoration="" line-height="16.5px" x="16" y="14">December</text><text fill="rgb(0, 0, 0)" stroke="none" font-family="Arial" font-size="14px" font-style="normal" font-weight="normal" text-decoration="" line-height="16.5px" x="33" y="30">2010</text></g><g transform="translate(48,0) matrix(1,0,0,1,0,0) translate(-48,0)"><g/></g></g><g transform="matrix(1,0,0,1,272,119)"><g transform="translate(224,99) matrix(1,0,0,1,0,0) translate(-224,-99)"><g><rect fill="rgb(0,0,0)" stroke="none" x="0" y="0" width="127" height="63" fill-opacity="0"/></g></g><g transform="translate(224,99) matrix(1,0,0,1,0,0) translate(-224,-99)"><g><rect fill="rgb(0,0,0)" stroke="none" x="0" y="0" width="127" height="33" fill-opacity="0"/></g></g><g transform="translate(224,99) matrix(1,0,0,1,0,0) translate(-224,-99)"><g><rect fill="rgb(0,0,0)" stroke="none" x="1" y="0" width="48" height="15" fill-opacity="0"/></g></g><g transform="translate(224,99) matrix(1,0,0,1,0,0) translate(-224,-99)"><g><rect fill="rgb(0,0,0)" stroke="none" x="1" y="0" width="48" height="15" fill-opacity="0"/></g><text fill="rgb(0, 0, 0)" stroke="none" font-family="Arial" font-size="14px" font-style="normal" font-weight="normal" text-decoration="" line-height="16.5px" x="1" y="14">Hudson</text></g><g transform="translate(224,99) matrix(1,0,0,1,0,0) translate(-224,-99)"><g><rect fill="rgb(0,0,0)" stroke="none" x="49" y="0" width="108" height="30" fill-opacity="0"/></g></g><g transform="translate(224,99) matrix(1,0,0,1,0,0) translate(-224,-99)"><g><rect fill="rgb(0,0,0)" stroke="none" x="49" y="0" width="108" height="32" fill-opacity="0"/></g><text fill="rgb(0, 0, 0)" stroke="none" font-family="Arial" font-size="14px" font-style="normal" font-weight="normal" text-decoration="" line-height="16.5px" x="49" y="14">®</text><text fill="rgb(0, 0, 0)" stroke="none" font-family="Arial" font-size="14px" font-style="normal" font-weight="normal" text-decoration="" line-height="16.5px" x="64" y="14">trademark</text><text fill="rgb(0, 0, 0)" stroke="none" font-family="Arial" font-size="14px" font-style="normal" font-weight="normal" text-decoration="" line-height="16.5px" x="18" y="30">kept</text><text fill="rgb(0, 0, 0)" stroke="none" font-family="Arial" font-size="14px" font-style="normal" font-weight="normal" text-decoration="" line-height="16.5px" x="49" y="30">by</text><text fill="rgb(0, 0, 0)" stroke="none" font-family="Arial" font-size="14px" font-style="normal" font-weight="normal" text-decoration="" line-height="16.5px" x="67" y="30">Oracle</text></g><g transform="translate(224,99) matrix(1,0,0,1,0,0) translate(-224,-99)"><g/></g><g transform="translate(224,99) matrix(1,0,0,1,0,0) translate(-224,-99)"><g><rect fill="rgb(0,0,0)" stroke="none" x="0" y="33" width="127" height="14" fill-opacity="0"/></g></g><g transform="translate(224,99) matrix(1,0,0,1,0,0) translate(-224,-99)"><g><rect fill="rgb(0,0,0)" stroke="none" x="62" y="33" width="4" height="14" fill-opacity="0"/></g></g><g transform="translate(224,99) matrix(1,0,0,1,0,0) translate(-224,-99)"><g><rect fill="rgb(0,0,0)" stroke="none" x="62" y="33" width="4" height="14" fill-opacity="0"/></g></g></g><g transform="matrix(1,0,0,1,55,63)"><g transform="translate(357,0) matrix(1,0,0,1,0,0) translate(-357,0)"><g><rect fill="rgb(0,0,0)" stroke="none" x="0" y="0" width="394" height="41" fill-opacity="0"/></g></g><g transform="translate(357,0) matrix(1,0,0,1,0,0) translate(-357,0)"><g><rect fill="rgb(0,0,0)" stroke="none" x="0" y="0" width="394" height="41" fill-opacity="0"/></g></g><g transform="translate(357,0) matrix(1,0,0,1,0,0) translate(-357,0)"><g><rect fill="rgb(0,0,0)" stroke="none" x="119" y="0" width="155" height="14" fill-opacity="0"/></g></g><g transform="translate(357,0) matrix(1,0,0,1,0,0) translate(-357,0)"><g><rect fill="rgb(0,0,0)" stroke="none" x="119" y="0" width="155" height="14" fill-opacity="0"/></g></g><g transform="translate(357,0) matrix(1,0,0,1,0,0) translate(-357,0)"><g><rect fill="rgb(0,0,0)" stroke="none" x="119" y="0" width="155" height="40" fill-opacity="0"/></g><text fill="rgb(255, 153, 0)" stroke="none" font-family="Arial" font-size="36px" font-style="normal" font-weight="normal" text-decoration="" line-height="41px" x="119" y="34">HUDSON</text></g><g transform="translate(357,0) matrix(1,0,0,1,0,0) translate(-357,0)"><g/></g></g></g></svg>