<svg version="1.1" xmlns="http://www.w3.org/2000/svg" xmlns:xlink="http://www.w3.org/1999/xlink" width="870" height="180.5"><style xmlns="http://www.w3.org/1999/xhtml"></style><defs/><g transform="translate(0,0)"><g><rect fill="#FFFFFF" stroke="none" x="0" y="0" width="870" height="180.5"/></g><g transform="translate(0,0) matrix(1,0,0,1,30,30)"><g><g transform="translate(0,0) scale(8.2,1.1)"><g><g transform="scale(0.12195121951219513,0.9090909090909091)"><path fill="#FFFFFF" stroke="none" d="M 0 33 L 765 33 L 765 0 L 819.9999999999999 55.00000000000001 L 765 110.00000000000001 L 765 77 L 0 77 L 0 33 Z"/><path fill="none" stroke="#333333" d="M 0 33 M 0 33 L 765 33 L 765 0 L 819.9999999999999 55.00000000000001 L 765 110.00000000000001 L 765 77 L 0 77 L 0 33 Z" stroke-miterlimit="10" stroke-width="4"/></g></g></g></g></g><g transform="matrix(1,0,0,1,95.5,26.49344521933864)"><g transform="translate(0,0)"><g transform="translate(-100,-62) translate(4.5,35.50655478066136) matrix(1,0,0,1,0,0)"><g><path fill="none" stroke="#999999" d="M 100 30.99344521933864 L 100 156" stroke-miterlimit="10" stroke-width="2"/></g></g></g></g><g transform="matrix(1,0,0,1,32,17)"><g transform="translate(87,0) matrix(1,0,0,1,0,0) translate(-87,0)"><g><rect fill="rgb(0,0,0)" stroke="none" x="0" y="0" width="147" height="16" fill-opacity="0"/></g></g><g transform="translate(87,0) matrix(1,0,0,1,0,0) translate(-87,0)"><g><rect fill="rgb(0,0,0)" stroke="none" x="0" y="0" width="147" height="16" fill-opacity="0"/></g></g><g transform="translate(87,0) matrix(1,0,0,1,0,0) translate(-87,0)"><g><rect fill="rgb(0,0,0)" stroke="none" x="29" y="0" width="88" height="14" fill-opacity="0"/></g></g><g transform="translate(87,0) matrix(1,0,0,1,0,0) translate(-87,0)"><g><rect fill="rgb(0,0,0)" stroke="none" x="29" y="0" width="88" height="14" fill-opacity="0"/></g></g><g transform="translate(87,0) matrix(1,0,0,1,0,0) translate(-87,0)"><g><rect fill="rgb(0,0,0)" stroke="none" x="29" y="0" width="88" height="15" fill-opacity="0"/></g><text fill="rgb(0, 0, 0)" stroke="none" font-family="Arial" font-size="14px" font-style="normal" font-weight="normal" text-decoration="" line-height="16.5px" x="29" y="14">Summer</text><text fill="rgb(0, 0, 0)" stroke="none" font-family="Arial" font-size="14px" font-style="normal" font-weight="normal" text-decoration="" line-height="16.5px" x="86" y="14">2004</text></g><g transform="translate(87,0) matrix(1,0,0,1,0,0) translate(-87,0)"><g/></g></g><g transform="matrix(1,0,0,1,2,126)"><g transform="translate(57,0) matrix(1,0,0,1,0,0) translate(-57,0)"><g><rect fill="rgb(0,0,0)" stroke="none" x="0" y="0" width="102" height="33" fill-opacity="0"/></g></g><g transform="translate(57,0) matrix(1,0,0,1,0,0) translate(-57,0)"><g><rect fill="rgb(0,0,0)" stroke="none" x="0" y="0" width="102" height="33" fill-opacity="0"/></g></g><g transform="translate(57,0) matrix(1,0,0,1,0,0) translate(-57,0)"><g><rect fill="rgb(0,0,0)" stroke="none" x="19" y="0" width="64" height="30" fill-opacity="0"/></g></g><g transform="translate(57,0) matrix(1,0,0,1,0,0) translate(-57,0)"><g><rect fill="rgb(0,0,0)" stroke="none" x="19" y="0" width="64" height="30" fill-opacity="0"/></g></g><g transform="translate(57,0) matrix(1,0,0,1,0,0) translate(-57,0)"><g><rect fill="rgb(0,0,0)" stroke="none" x="19" y="0" width="64" height="32" fill-opacity="0"/></g><text fill="rgb(0, 0, 0)" stroke="none" font-family="Arial" font-size="14px" font-style="normal" font-weight="normal" text-decoration="" line-height="16.5px" x="19" y="14">Kicking</text><text fill="rgb(0, 0, 0)" stroke="none" font-family="Arial" font-size="14px" font-style="normal" font-weight="normal" text-decoration="" line-height="16.5px" x="68" y="14">off</text><text fill="rgb(0, 0, 0)" stroke="none" font-family="Arial" font-size="14px" font-style="normal" font-weight="normal" text-decoration="" line-height="16.5px" x="27" y="30">Hudson</text></g><g transform="translate(57,0) matrix(1,0,0,1,0,0) translate(-57,0)"><g/></g></g></g></svg>